<?xml version="1.0" encoding="UTF-8"?>
<svg version="1.1" xmlns="http://www.w3.org/2000/svg" width="192" height="192">
<path d="M0 0 C1.11591019 -0.00426498 2.23182037 -0.00852997 3.38154602 -0.01292419 C5.2113073 -0.01224442 5.2113073 -0.01224442 7.07803345 -0.0115509 C9.0102903 -0.01658882 9.0102903 -0.01658882 10.98158264 -0.02172852 C14.51263252 -0.03055765 18.04365815 -0.03290618 21.574718 -0.0335443 C23.78189693 -0.03425543 25.9890697 -0.03639095 28.1962471 -0.03904152 C35.89952231 -0.0482914 43.60278022 -0.05237686 51.30606079 -0.05158997 C58.48150259 -0.05098929 65.65686919 -0.06153999 72.83229196 -0.07733363 C78.9971748 -0.09041843 85.16203308 -0.09577347 91.32692969 -0.09513456 C95.00697513 -0.09487984 98.68695373 -0.09771639 102.36698532 -0.10831261 C106.47254307 -0.11981148 110.57793278 -0.11524101 114.6835022 -0.10920715 C115.89929459 -0.11482666 117.11508698 -0.12044617 118.36772156 -0.12623596 C120.05004631 -0.11994423 120.05004631 -0.11994423 121.76635742 -0.11352539 C123.22144998 -0.11434254 123.22144998 -0.11434254 124.70593834 -0.1151762 C130.91202002 0.43564473 134.47450454 2.42544532 138.51016235 7.13371277 C142.8102568 14.47245028 141.66231405 24.44577113 141.67129517 32.68278503 C141.67626007 33.79144928 141.68122498 34.90011353 141.68634033 36.04237366 C141.70084331 39.67829527 141.70774181 43.31417335 141.71328735 46.95011902 C141.71752842 48.8226299 141.71752842 48.8226299 141.72185516 50.73296928 C141.73526143 56.65376972 141.74517622 62.57455704 141.74905705 68.49537045 C141.75354299 75.29841826 141.77113489 82.10126568 141.80005765 88.90425259 C141.82434827 94.82559161 141.83200439 100.7468811 141.8337326 106.66827202 C141.83675238 109.17561374 141.84475798 111.68295475 141.85791779 114.19026375 C141.87502582 117.69834152 141.87308683 121.20593215 141.86660767 124.71403503 C141.87582245 125.74130203 141.88503723 126.76856903 141.89453125 127.82696533 C141.85087744 135.3954157 140.99837599 142.05618537 136.13516235 148.07121277 C131.84629583 151.44103647 128.26532492 152.38350489 122.8553772 152.38768005 C121.16466095 152.39613953 121.16466095 152.39613953 119.43978882 152.4047699 C117.59903778 152.3986972 117.59903778 152.3986972 115.72109985 152.39250183 C113.77158417 152.39775879 113.77158417 152.39775879 111.78268433 152.40312195 C108.22486885 152.41222648 104.66716958 152.40870971 101.10935211 152.40236378 C97.38276358 152.39729376 93.65618488 152.40199802 89.92959595 152.40513611 C83.67192807 152.40877283 77.41430743 152.40398437 71.15664673 152.39445496 C63.92605745 152.38357095 56.69558097 152.38709674 49.46499443 152.39810777 C43.25254286 152.40718902 37.04012521 152.40846182 30.82766914 152.40323043 C27.11917396 152.40011534 23.41073176 152.39968872 19.70223999 152.40630341 C15.56783385 152.41316291 11.43362163 152.40365042 7.29922485 152.39250183 C6.0720575 152.39655029 4.84489014 152.40059875 3.58053589 152.4047699 C2.45339172 152.39913025 1.32624756 152.3934906 0.16494751 152.38768005 C-0.81211151 152.386926 -1.78917053 152.38617195 -2.7958374 152.38539505 C-8.58625016 151.84443582 -11.69973037 149.4359967 -15.48983765 145.13371277 C-17.46178628 141.93666852 -17.74404121 139.49589265 -17.75726318 135.76449585 C-17.76579315 134.67527328 -17.77432312 133.58605072 -17.78311157 132.46382141 C-17.7822052 131.27360382 -17.78129883 130.08338623 -17.78036499 128.85710144 C-17.78708221 127.59979721 -17.79379944 126.34249298 -17.80072021 125.04708862 C-17.81837769 121.60066491 -17.82307553 118.15434054 -17.82435179 114.70787597 C-17.82577431 112.55294435 -17.83004587 110.39803792 -17.83534622 108.24311256 C-17.85384702 100.72022018 -17.86201694 93.19739863 -17.86044312 85.67448425 C-17.85924231 78.67051217 -17.8803322 71.66684856 -17.91193044 64.66295451 C-17.9381171 58.64326667 -17.94880939 52.6236794 -17.9475323 46.60393506 C-17.94702328 43.01152375 -17.95267256 39.41938649 -17.9738884 35.82703209 C-17.99692258 31.817311 -17.98773541 27.80827683 -17.97567749 23.79850769 C-17.9869165 22.61436279 -17.99815552 21.4302179 -18.00973511 20.21018982 C-17.95937355 13.6204734 -17.45226453 9.4789797 -13.48983765 4.13371277 C-9.39655153 0.29625703 -5.45091937 0.00942414 0 0 Z " fill="#070603" transform="translate(34.489837646484375,19.866287231445313)"/>
<path d="M0 0 C2.475 0.495 2.475 0.495 5 1 C5 1.66 5 2.32 5 3 C5.99 3.33 6.98 3.66 8 4 C9.6484375 5.671875 9.6484375 5.671875 11.375 7.75 C14.998553 12.01166296 18.69384873 15.91154061 23 19.5 C33.44698051 28.20581709 45.96383499 39.89847422 48 54 C48.62469013 61.42459578 48.69448074 67.91940517 44 74 C39.184198 79.07720253 34.79548164 82.70128154 27.625 83.265625 C25.830625 83.25789063 25.830625 83.25789063 24 83.25 C22.80375 83.25515625 21.6075 83.2603125 20.375 83.265625 C17.14195026 83.01117201 14.90582541 82.38687122 12 81 C13.08977742 88.19253099 17.06859762 94.47045252 22.4375 99.3125 C23.7059375 100.6428125 23.7059375 100.6428125 25 102 C24.67 103.65 24.34 105.3 24 107 C12.78 107 1.56 107 -10 107 C-10.33 109.64 -10.66 112.28 -11 115 C-12.5625 117.5 -12.5625 117.5 -14 119 C-15.36125 118.505 -15.36125 118.505 -16.75 118 C-20.07045807 116.80394277 -20.07045807 116.80394277 -24 117 C-23.979375 117.969375 -23.95875 118.93875 -23.9375 119.9375 C-24 123 -24 123 -25 124 C-27.67058851 124.14115161 -30.32432238 124.04247107 -33 124 C-33.33 122.68 -33.66 121.36 -34 120 C-34.598125 119.896875 -35.19625 119.79375 -35.8125 119.6875 C-38.32225354 118.89872032 -39.17017086 117.82982914 -41 116 C-42.32860925 115.64830932 -43.66158328 115.31229724 -45 115 C-47.50819993 109.98360015 -46.64435315 102.03911447 -45.50390625 96.66015625 C-43.67400544 91.9354971 -40.4385851 89.21929255 -36 87 C-29.29953313 86.42218196 -23.87996268 86.64002132 -18 90 C-15.5625 92.1875 -15.5625 92.1875 -14 94 C-10.74850232 89.72171358 -8.41167747 86.26170694 -7 81 C-7.85078125 81.3196875 -8.7015625 81.639375 -9.578125 81.96875 C-16.19512063 83.96291307 -23.48272402 84.37293149 -29.9921875 81.83203125 C-36.60452635 78.01571105 -40.96701926 73.74659906 -43.44921875 66.35546875 C-45.43946525 57.84398904 -44.39246809 50.73460952 -40.06420898 43.15869141 C-33.01955158 32.37882417 -22.50396383 23.39647393 -13.375 14.375 C-11.04659934 12.07319516 -8.72156686 9.76806084 -6.3984375 7.4609375 C-5.86938812 6.94018646 -5.34033875 6.41943542 -4.79525757 5.88290405 C-2.05208441 3.20409435 -2.05208441 3.20409435 0 0 Z " fill="#201507" transform="translate(75,41)"/>
<path d="M0 0 C4.92213424 0.22167276 9.33807275 1.01662718 14.09765625 2.27734375 C20.00651141 3.81086458 25.92768829 5.22757598 31.890625 6.53515625 C33.41537908 6.87298144 34.94011864 7.21087218 36.46484375 7.54882812 C38.78758335 8.0624871 41.11085165 8.57294917 43.43603516 9.07543945 C45.73551165 9.57374641 48.0319024 10.08459352 50.328125 10.59765625 C51.02286926 10.74461441 51.71761353 10.89157257 52.43341064 11.04298401 C56.17859337 11.89172815 59.04730483 12.7657813 61.8125 15.5 C62.0546875 17.8828125 62.0546875 17.8828125 61.6875 20.625 C61.56246094 21.59308594 61.43742187 22.56117187 61.30859375 23.55859375 C60.62899944 27.58799938 59.78835175 31.53153621 58.8125 35.5 C59.451875 35.644375 60.09125 35.78875 60.75 35.9375 C62.8125 36.5 62.8125 36.5 63.8125 37.5 C64.05829583 42.25790508 63.5752848 46.14617168 62.1875 50.6875 C61.82269531 51.90179688 61.45789063 53.11609375 61.08203125 54.3671875 C60.87916504 55.02686523 60.67629883 55.68654297 60.46728516 56.36621094 C59.76329027 58.6603628 59.07374104 60.9585226 58.38671875 63.2578125 C57.36918972 66.66286393 56.346467 70.06628861 55.3203125 73.46875 C54.14615167 77.37167852 52.99938836 81.28179173 51.86450195 85.19628906 C49.39293558 93.70782556 46.70853828 102.12253287 43.8125 110.5 C43.51214844 111.37140625 43.21179688 112.2428125 42.90234375 113.140625 C41.83586091 116.12034589 41.07803993 118.23446007 38.8125 120.5 C32.31186241 120.8386201 26.19488197 118.45859519 20.25 116.125 C19.45142578 115.82078125 18.65285156 115.5165625 17.83007812 115.203125 C16.2527024 114.60148536 14.67758427 113.99388748 13.10498047 113.37988281 C11.57013518 112.7907899 10.0271481 112.2225079 8.47705078 111.67480469 C2.91483656 109.70467312 2.91483656 109.70467312 1.8125 107.5 C3.11574219 107.15388672 3.11574219 107.15388672 4.4453125 106.80078125 C11.89331408 104.9461163 11.89331408 104.9461163 18.0625 100.6875 C21.14127817 98.23847191 21.65515477 98.20938867 25.375 98.5625 C28.71045805 99.14845885 31.75047159 100.01837335 34.8125 101.5 C34.008125 102.0775 33.20375 102.655 32.375 103.25 C29.83383261 105.48126893 29.16129632 106.24456771 28.8125 109.5 C30.4625 109.83 32.1125 110.16 33.8125 110.5 C33.8125 111.16 33.8125 111.82 33.8125 112.5 C35.1325 112.5 36.4525 112.5 37.8125 112.5 C37.4825 108.87 37.1525 105.24 36.8125 101.5 C39.1225 101.5 41.4325 101.5 43.8125 101.5 C44.1425 99.19 44.4725 96.88 44.8125 94.5 C44.1525 95.16 43.4925 95.82 42.8125 96.5 C36.60379661 97.16050036 30.6268455 95.69295384 24.8125 93.5 C23.5096229 90.89424579 24.05724685 89.92317938 24.75 87.125 C26.40011537 79.38729687 26.28199718 71.93468914 24.8125 64.1875 C24.44286274 61.07555391 24.43851099 59.99453876 26.3515625 57.46484375 C28.42089592 55.63964518 30.53320155 54.05274612 32.8125 52.5 C36.77446166 49.68645956 36.77446166 49.68645956 38.8125 45.5 C39.22916667 42 39.22916667 42 38.8125 38.5 C36.72688598 36.10540613 35.4344626 35.59329439 32.3125 35.125 C29.38043713 35.56480943 28.00442582 36.55162149 25.8125 38.5 C25.52375 37.695625 25.235 36.89125 24.9375 36.0625 C24.07987432 33.3673532 24.07987432 33.3673532 21.8125 32.5 C18.29330989 32.11747934 16.47113963 32.05497322 13.5 34.0625 C11.34452866 37.17595861 11.0996949 39.76646636 10.8125 43.5 C5.53828943 39.1847368 0.74624336 34.50884097 -4.01074219 29.63964844 C-6.31241398 27.29914247 -8.44462451 25.32858366 -11.1875 23.5 C-11.62337105 19.11602157 -10.84998967 15.14495478 -9.875 10.875 C-9.63136719 9.76898438 -9.38773437 8.66296875 -9.13671875 7.5234375 C-7.41581889 2.04205275 -5.8992796 -0.0650955 0 0 Z " fill="#EAD193" transform="translate(106.1875,27.5)"/>
<path d="M0 0 C2.475 0.495 2.475 0.495 5 1 C5 1.66 5 2.32 5 3 C5.99 3.33 6.98 3.66 8 4 C9.6484375 5.671875 9.6484375 5.671875 11.375 7.75 C14.998553 12.01166296 18.69384873 15.91154061 23 19.5 C33.44698051 28.20581709 45.96383499 39.89847422 48 54 C48.62469013 61.42459578 48.69448074 67.91940517 44 74 C39.184198 79.07720253 34.79548164 82.70128154 27.625 83.265625 C25.830625 83.25789063 25.830625 83.25789063 24 83.25 C22.80375 83.25515625 21.6075 83.2603125 20.375 83.265625 C17.14195026 83.01117201 14.90582541 82.38687122 12 81 C13.08977742 88.19253099 17.06859762 94.47045252 22.4375 99.3125 C23.7059375 100.6428125 23.7059375 100.6428125 25 102 C24.67 103.65 24.34 105.3 24 107 C12.78 107 1.56 107 -10 107 C-10.33 109.64 -10.66 112.28 -11 115 C-12.5625 117.5 -12.5625 117.5 -14 119 C-15.36125 118.505 -15.36125 118.505 -16.75 118 C-20.07045807 116.80394277 -20.07045807 116.80394277 -24 117 C-23.979375 117.969375 -23.95875 118.93875 -23.9375 119.9375 C-24 123 -24 123 -25 124 C-27.67058851 124.14115161 -30.32432238 124.04247107 -33 124 C-33.33 122.68 -33.66 121.36 -34 120 C-34.598125 119.896875 -35.19625 119.79375 -35.8125 119.6875 C-38.32225354 118.89872032 -39.17017086 117.82982914 -41 116 C-42.32860925 115.64830932 -43.66158328 115.31229724 -45 115 C-47.50819993 109.98360015 -46.64435315 102.03911447 -45.50390625 96.66015625 C-43.67400544 91.9354971 -40.4385851 89.21929255 -36 87 C-29.29953313 86.42218196 -23.87996268 86.64002132 -18 90 C-15.5625 92.1875 -15.5625 92.1875 -14 94 C-10.74850232 89.72171358 -8.41167747 86.26170694 -7 81 C-7.85078125 81.3196875 -8.7015625 81.639375 -9.578125 81.96875 C-16.19512063 83.96291307 -23.48272402 84.37293149 -29.9921875 81.83203125 C-36.60452635 78.01571105 -40.96701926 73.74659906 -43.44921875 66.35546875 C-45.43946525 57.84398904 -44.39246809 50.73460952 -40.06420898 43.15869141 C-33.01955158 32.37882417 -22.50396383 23.39647393 -13.375 14.375 C-11.04659934 12.07319516 -8.72156686 9.76806084 -6.3984375 7.4609375 C-5.86938812 6.94018646 -5.34033875 6.41943542 -4.79525757 5.88290405 C-2.05208441 3.20409435 -2.05208441 3.20409435 0 0 Z M-2.2746582 8.88647461 C-2.91575027 9.5181102 -3.55684235 10.14974579 -4.21736145 10.80052185 C-4.90488998 11.49412308 -5.59241852 12.1877243 -6.30078125 12.90234375 C-7.01477585 13.61346817 -7.72877045 14.32459259 -8.46440125 15.05726624 C-9.97857894 16.56939871 -11.48895975 18.08534116 -12.99584961 19.60473633 C-15.28248581 21.90727705 -17.58445698 24.19358286 -19.88867188 26.47851562 C-21.36033653 27.95216539 -22.83106886 29.42674693 -24.30078125 30.90234375 C-24.98223709 31.5777269 -25.66369293 32.25311005 -26.36579895 32.94895935 C-33.68638097 40.37595456 -39.1131658 47.1052241 -39.25 57.8125 C-39.27578125 59.01519531 -39.3015625 60.21789062 -39.328125 61.45703125 C-38.73955759 67.81215795 -35.82623443 71.95943164 -31 76 C-25.26416162 78.86791919 -17.78681065 79.24094809 -11.6875 77.2421875 C-7.71878588 75.33299548 -4.3193788 72.90445645 -1 70 C-2.0788932 79.08202634 -3.86736622 88.82717949 -9.72265625 96.15625 C-10.14417969 96.7646875 -10.56570312 97.373125 -11 98 C-10.67 98.99 -10.34 99.98 -10 101 C-1.42 101 7.16 101 16 101 C14.02 97.37 12.04 93.74 10 90 C8.57421875 86.29296875 8.57421875 86.29296875 7.6875 83.1875 C7.38199219 82.14980469 7.07648438 81.11210938 6.76171875 80.04296875 C6.01009396 77.04032406 5.46189572 74.05948748 5 71 C5.680625 71.4125 6.36125 71.825 7.0625 72.25 C8.5165625 73.11625 8.5165625 73.11625 10 74 C10.99 74.721875 11.98 75.44375 13 76.1875 C18.2509248 79.16340705 24.17615604 78.70461322 30 78 C34.73808495 76.66974902 37.33530562 74.81808539 40.4375 71 C43.87578133 64.39849984 44.29243648 56.57536337 42.26953125 49.4140625 C36.25664297 35.99902655 22.67465729 25.57991767 12.35375977 15.38964844 C11.41975342 14.46442383 10.48574707 13.53919922 9.5234375 12.5859375 C8.67700684 11.7511084 7.83057617 10.9162793 6.95849609 10.05615234 C5 8 5 8 4 6 C0.42709263 6 0.15914629 6.46301586 -2.2746582 8.88647461 Z " fill="#B02E16" transform="translate(75,41)"/>
<path d="M0 0 C3.46125202 1.94219077 6.20719483 3.96666141 8.98828125 6.79296875 C9.69404297 7.50517578 10.39980469 8.21738281 11.12695312 8.95117188 C11.84818359 9.68916016 12.56941406 10.42714844 13.3125 11.1875 C14.05306641 11.93708984 14.79363281 12.68667969 15.55664062 13.45898438 C17.37571712 15.30153282 19.18994389 17.14859662 21 19 C21.29390625 17.72125 21.5878125 16.4425 21.890625 15.125 C22.52568379 12.36193718 22.84770799 11.17404801 24.75 9 C27.76616732 7.65948119 29.73241094 7.5234766 33 8 C35.30275556 9.8670991 36.67823871 11.35647741 38 14 C38.5259375 13.2265625 38.5259375 13.2265625 39.0625 12.4375 C41 11 41 11 44.5 11.125 C48 12 48 12 49.9375 13.125 C51.65536295 16.15652284 51.35276256 18.58996195 51 22 C48.91075845 26.42386382 46.22743134 28.4414237 42.25 31.1875 C38.32722005 34.10271731 38.32722005 34.10271731 36.50390625 38.3828125 C36.83359835 40.97861616 37.40960792 43.45159873 38 46 C38.48703849 53.89849373 37.70025587 61.28812517 36 69 C44.84727971 71.80705745 44.84727971 71.80705745 54 72 C54.99 71.01 55.98 70.02 57 69 C56.34 71.97 55.68 74.94 55 78 C52.69 78 50.38 78 48 78 C48.23396484 78.93972656 48.23396484 78.93972656 48.47265625 79.8984375 C48.66730469 80.71570313 48.86195313 81.53296875 49.0625 82.375 C49.25972656 83.18710938 49.45695312 83.99921875 49.66015625 84.8359375 C50 87 50 87 49 89 C47.68 89 46.36 89 45 89 C45 88.34 45 87.68 45 87 C44.071875 87.309375 44.071875 87.309375 43.125 87.625 C42.42375 87.74875 41.7225 87.8725 41 88 C40.01 87.01 40.01 87.01 39 86 C39.0625 84.125 39.0625 84.125 40 82 C42.5625 79.75 42.5625 79.75 45 78 C37.99406794 75.94006331 37.99406794 75.94006331 31 77 C29.34152207 78.23572865 27.68403169 79.47290757 26.0390625 80.7265625 C22.93855876 82.66289242 19.64953484 83.49660032 16.13671875 84.421875 C13.97023346 84.9323463 13.97023346 84.9323463 12 86 C10.08984375 85.36328125 10.08984375 85.36328125 7.9375 84.3125 C7.22464844 83.97863281 6.51179688 83.64476562 5.77734375 83.30078125 C4 82 4 82 3.25390625 79.85546875 C3.17011719 79.24316406 3.08632812 78.63085938 3 78 C3.94875 77.7525 4.8975 77.505 5.875 77.25 C15.96542582 74.38905103 15.96542582 74.38905103 24 68 C24.66 68 25.32 68 26 68 C26.67561748 66.3369416 27.33933281 64.66905395 28 63 C28.53625 61.824375 29.0725 60.64875 29.625 59.4375 C32.53830558 51.50434481 31.86013668 43.11323833 28.38671875 35.49609375 C22.55170543 24.99306978 14.38834371 15.45275986 5 8 C0 2.83950617 0 2.83950617 0 0 Z " fill="#80581D" transform="translate(95,51)"/>
<path d="M0 0 C5.1299787 5.82952125 5.47209594 12.6113364 5.3046875 20.0703125 C4.52533391 27.564097 0.66956419 31.79142624 -4.90234375 36.5546875 C-9.5398951 39.75002083 -13.40991529 40.27409519 -19 40.25 C-20.794375 40.25773437 -20.794375 40.25773437 -22.625 40.265625 C-25.85804974 40.01117201 -28.09417459 39.38687122 -31 38 C-29.91022258 45.19253099 -25.93140238 51.47045252 -20.5625 56.3125 C-19.716875 57.199375 -18.87125 58.08625 -18 59 C-18.33 60.65 -18.66 62.3 -19 64 C-30.22 64 -41.44 64 -53 64 C-53.33 66.64 -53.66 69.28 -54 72 C-54.433125 71.525625 -54.86625 71.05125 -55.3125 70.5625 C-57.02309613 68.76313043 -57.02309613 68.76313043 -60 68 C-60.33 68.99 -60.66 69.98 -61 71 C-65.6756181 74.11707874 -70.53472603 73.8435845 -76 73 C-79.68307785 70.8136036 -81.63835233 68.08494302 -83 64 C-83.88172043 57.27688172 -83.88172043 57.27688172 -81.71875 54.14453125 C-78.72716645 51.28212972 -76.12451813 49.61702417 -71.9375 49.375 C-67.5826379 50.06624795 -65.33673319 51.15156923 -62 54 C-61.67 54.99 -61.34 55.98 -61 57 C-60.34 57 -59.68 57 -59 57 C-59 57.99 -59 58.98 -59 60 C-57.35 60 -55.7 60 -54 60 C-53.67 59.01 -53.34 58.02 -53 57 C-44.75 57 -36.5 57 -28 57 C-29.65 54.69 -31.3 52.38 -33 50 C-34.08392519 47.27814341 -35.00237362 44.72911583 -35.8125 41.9375 C-36.02841797 41.25623047 -36.24433594 40.57496094 -36.46679688 39.87304688 C-37.69592822 35.81106044 -38.23129929 32.23608127 -38 28 C-34.85656707 28.59842159 -33.0629421 29.60781141 -30.5625 31.5625 C-24.33260175 35.57241585 -17.35137136 34.71261589 -10.3046875 33.55859375 C-6.31175323 32.51094268 -4.31704454 31.33251013 -1.4375 28.3125 C1.67988845 21.67915288 0.98421538 11.3621098 -1.0234375 4.50390625 C-1.34570312 3.67761719 -1.66796875 2.85132812 -2 2 C-1.34 1.34 -0.68 0.68 0 0 Z " fill="#951D0C" transform="translate(118,84)"/>
<path d="M0 0 C4.1976439 0.5761472 5.56834585 2.20207429 8.1875 5.4375 C8.1875 6.0975 8.1875 6.7575 8.1875 7.4375 C8.765 7.685 9.3425 7.9325 9.9375 8.1875 C12.4877997 9.60433317 14.20535701 11.31377537 16.1875 13.4375 C16.8475 12.7775 17.5075 12.1175 18.1875 11.4375 C18.435 12.324375 18.6825 13.21125 18.9375 14.125 C20.86879318 19.24292692 23.91303698 22.25592329 28 25.75 C38.29833405 34.60161799 49.00100652 46.38358607 50.49609375 60.3125 C50.85100853 68.74441471 49.27561867 75.79510362 43.75 82.3125 C42.904375 83.01375 42.05875 83.715 41.1875 84.4375 C40.424375 85.13875 39.66125 85.84 38.875 86.5625 C32.9160747 90.71988975 25.52786876 93.0839379 18.25 92 C17.569375 91.814375 16.88875 91.62875 16.1875 91.4375 C18.9164356 96.79041214 21.46181835 99.76196983 26.1875 103.4375 C27.60791821 106.27833641 27.50202272 108.29227278 27.1875 111.4375 C25.62109375 113.59912109 25.62109375 113.59912109 23.1875 115.4375 C19.859375 115.95166016 19.859375 115.95166016 15.9375 115.9765625 C15.24237305 115.98835541 14.54724609 116.00014832 13.83105469 116.01229858 C11.61630763 116.04751003 9.40250386 116.05672173 7.1875 116.0625 C4.97278005 116.07886967 2.75847918 116.10096766 0.54394531 116.13412476 C-1.46535558 116.16268184 -3.47489251 116.17287208 -5.484375 116.18212891 C-8.55899837 116.41804851 -10.24709181 116.80739688 -12.8125 118.4375 C-12.4825 116.1275 -12.1525 113.8175 -11.8125 111.4375 C-0.5925 111.1075 10.6275 110.7775 22.1875 110.4375 C21.17385206 105.36926028 20.75973657 104.55997385 17.375 101.125 C13.62967131 97.08327839 11.19222715 93.58006095 9.1875 88.4375 C9.59765625 86.20703125 9.59765625 86.20703125 10.1875 84.4375 C11.21423828 84.92089844 11.21423828 84.92089844 12.26171875 85.4140625 C18.77889649 87.69376953 27.3280163 87.74107293 33.6875 84.875 C39.27029915 81.49656789 43.17973408 76.62581962 45.1875 70.4375 C46.59643582 57.33622665 42.46965826 48.25899505 34.41796875 38.234375 C31.26494531 34.52493566 28.06709559 31.39824401 24.1875 28.4375 C21.71196315 26.08272105 19.44836492 23.779323 17.375 21.0625 C14.88352248 18.07272698 12.10601412 15.72578563 9.14453125 13.21484375 C7.35723335 11.59164905 5.91199742 9.96610812 4.4375 8.0625 C2.45825125 5.32854261 2.45825125 5.32854261 -0.125 4.5625 C-0.9603125 4.500625 -0.9603125 4.500625 -1.8125 4.4375 C-2.21254242 5.32699089 -2.21254242 5.32699089 -2.6206665 6.23445129 C-3.83633913 8.48156551 -5.06027639 9.90972951 -6.88183594 11.6862793 C-7.50298279 12.29759201 -8.12412964 12.90890472 -8.76409912 13.53874207 C-9.43491516 14.18982437 -10.1057312 14.84090668 -10.796875 15.51171875 C-12.22148088 16.91588708 -13.64595583 18.32018826 -15.0703125 19.72460938 C-17.31022535 21.92122116 -19.55255143 24.11529156 -21.79785156 26.30639648 C-23.97085614 28.4306693 -26.13420327 30.56443422 -28.296875 32.69921875 C-28.95959412 33.3401799 -29.62231323 33.98114105 -30.30511475 34.64152527 C-39.17606859 43.41894855 -44.98292364 52.82221813 -45.8125 65.4375 C-46.1425 65.4375 -46.4725 65.4375 -46.8125 65.4375 C-48.38644799 55.05795108 -47.32840786 48.9988288 -41.21533203 40.42919922 C-36.16467884 34.14077164 -30.2644481 28.62600225 -24.5 23 C-22.56802605 21.10319226 -20.63828691 19.20418252 -18.71113586 17.30247498 C-17.52015602 16.12836896 -16.32610219 14.95737067 -15.12858582 13.78993225 C-12.72933383 11.43421277 -10.68482032 9.24598048 -8.8125 6.4375 C-8.1525 6.4375 -7.4925 6.4375 -6.8125 6.4375 C-6.379375 5.509375 -6.379375 5.509375 -5.9375 4.5625 C-4.30895016 1.4863503 -3.49599537 0.5438215 0 0 Z " fill="#4D1205" transform="translate(76.8125,36.5625)"/>
<path d="M0 0 C4.875 1.875 4.875 1.875 6 3 C6.24579583 7.75790508 5.7627848 11.64617168 4.375 16.1875 C4.01019531 17.40179688 3.64539063 18.61609375 3.26953125 19.8671875 C3.06666504 20.52686523 2.86379883 21.18654297 2.65478516 21.86621094 C1.95079027 24.1603628 1.26124104 26.4585226 0.57421875 28.7578125 C-0.44331028 32.16286393 -1.466033 35.56628861 -2.4921875 38.96875 C-3.66634833 42.87167852 -4.81311164 46.78179173 -5.94799805 50.69628906 C-8.41956442 59.20782556 -11.10396172 67.62253287 -14 76 C-14.30035156 76.87140625 -14.60070312 77.7428125 -14.91015625 78.640625 C-15.97663909 81.62034589 -16.73446007 83.73446007 -19 86 C-25.50063759 86.3386201 -31.61761803 83.95859519 -37.5625 81.625 C-38.36107422 81.32078125 -39.15964844 81.0165625 -39.98242188 80.703125 C-41.5597976 80.10148536 -43.13491573 79.49388748 -44.70751953 78.87988281 C-46.24236482 78.2907899 -47.7853519 77.7225079 -49.33544922 77.17480469 C-54.89766344 75.20467312 -54.89766344 75.20467312 -56 73 C-54.69675781 72.65388672 -54.69675781 72.65388672 -53.3671875 72.30078125 C-45.91918592 70.4461163 -45.91918592 70.4461163 -39.75 66.1875 C-36.67122183 63.73847191 -36.15734523 63.70938867 -32.4375 64.0625 C-29.10204195 64.64845885 -26.06202841 65.51837335 -23 67 C-23.804375 67.5775 -24.60875 68.155 -25.4375 68.75 C-27.97866739 70.98126893 -28.65120368 71.74456771 -29 75 C-27.35 75.33 -25.7 75.66 -24 76 C-24 76.66 -24 77.32 -24 78 C-22.68 78 -21.36 78 -20 78 C-20.33 74.37 -20.66 70.74 -21 67 C-18.69 67 -16.38 67 -14 67 C-13.92072266 66.44578369 -13.84144531 65.89156738 -13.75976562 65.32055664 C-11.47676837 49.7542363 -8.12364169 34.5941634 -4.30511475 19.34968567 C-2.6965577 12.92698359 -1.19770334 6.51263323 0 0 Z " fill="#C4A362" transform="translate(164,62)"/>
<path d="M0 0 C2.475 0.495 2.475 0.495 5 1 C5 1.66 5 2.32 5 3 C5.99 3.33 6.98 3.66 8 4 C9.6484375 5.671875 9.6484375 5.671875 11.375 7.75 C14.998553 12.01166296 18.69384873 15.91154061 23 19.5 C27.7478041 23.45650342 31.96336544 27.9321825 36.1875 32.4375 C37.04730469 33.34371094 37.90710938 34.24992187 38.79296875 35.18359375 C41.09088734 38.1159819 42.17090639 40.38352418 43 44 C42.505 44.99 42.505 44.99 42 46 C42.45052734 47.05767578 42.45052734 47.05767578 42.91015625 48.13671875 C44.27048087 51.7106182 44.42337406 55.03734292 44.4375 58.8125 C44.44136719 59.52083984 44.44523437 60.22917969 44.44921875 60.95898438 C44.31404349 67.08129732 42.86008251 70.36790099 39 75 C38.34 74.67 37.68 74.34 37 74 C37.9590625 72.63875 37.9590625 72.63875 38.9375 71.25 C42.75231982 65.23876877 42.71903641 58.98244992 42 52 C38.80190738 40.6784101 28.45490613 32.43095644 20.390625 24.4140625 C19.89421005 23.91994873 19.3977951 23.42583496 18.88633728 22.91674805 C16.35496473 20.39858637 13.81704032 17.88775724 11.26586914 15.38964844 C10.32864014 14.46442383 9.39141113 13.53919922 8.42578125 12.5859375 C7.14828003 11.33369385 7.14828003 11.33369385 5.8449707 10.05615234 C4 8 4 8 4 6 C-0.71148061 8.48089508 -4.11706101 11.81073193 -7.83984375 15.5390625 C-8.48442032 16.17935394 -9.12899689 16.81964539 -9.79310608 17.4793396 C-11.15294431 18.83344905 -12.51018859 20.1901678 -13.86499023 21.54931641 C-15.91852695 23.6059979 -17.98497613 25.64903591 -20.05273438 27.69140625 C-32.09126732 39.19183915 -32.09126732 39.19183915 -38.875 54.0625 C-39.09929688 55.00222656 -39.32359375 55.94195312 -39.5546875 56.91015625 C-39.70164063 57.59980469 -39.84859375 58.28945312 -40 59 C-40.99 58.67 -41.98 58.34 -43 58 C-43.67217225 50.74053973 -41.94862521 46.08080902 -38 40 C-30.37314785 30.94160542 -21.79006151 22.69097753 -13.375 14.375 C-11.04659934 12.07319516 -8.72156686 9.76806084 -6.3984375 7.4609375 C-5.86938812 6.94018646 -5.34033875 6.41943542 -4.79525757 5.88290405 C-2.05208441 3.20409435 -2.05208441 3.20409435 0 0 Z " fill="#D89C20" transform="translate(75,41)"/>
<path d="M0 0 C5.1299787 5.82952125 5.47209594 12.6113364 5.3046875 20.0703125 C4.52533391 27.564097 0.66956419 31.79142624 -4.90234375 36.5546875 C-9.5398951 39.75002083 -13.40991529 40.27409519 -19 40.25 C-20.794375 40.25773437 -20.794375 40.25773437 -22.625 40.265625 C-25.85804974 40.01117201 -28.09417459 39.38687122 -31 38 C-29.91093814 45.18780827 -25.90283858 51.44818156 -20.625 56.375 C-19.75875 57.24125 -18.8925 58.1075 -18 59 C-18 60.32 -18 61.64 -18 63 C-28.23 63 -38.46 63 -49 63 C-49 61.68 -49 60.36 -49 59 C-41.74 59 -34.48 59 -27 59 C-28.98 56.03 -30.96 53.06 -33 50 C-34.12131851 47.21756545 -35.06207887 44.66607588 -35.875 41.8125 C-36.08640625 41.14025391 -36.2978125 40.46800781 -36.515625 39.77539062 C-37.72254055 35.75103261 -38.22169856 32.19271101 -38 28 C-34.85656707 28.59842159 -33.0629421 29.60781141 -30.5625 31.5625 C-24.33260175 35.57241585 -17.35137136 34.71261589 -10.3046875 33.55859375 C-6.31175323 32.51094268 -4.31704454 31.33251013 -1.4375 28.3125 C1.67988845 21.67915288 0.98421538 11.3621098 -1.0234375 4.50390625 C-1.34570312 3.67761719 -1.66796875 2.85132812 -2 2 C-1.34 1.34 -0.68 0.68 0 0 Z " fill="#BE7D13" transform="translate(118,84)"/>
<path d="M0 0 C2.30275556 1.8670991 3.67823871 3.35647741 5 6 C5.5259375 5.2265625 5.5259375 5.2265625 6.0625 4.4375 C8 3 8 3 11.5 3.125 C15 4 15 4 16.9375 5.125 C18.65536295 8.15652284 18.35276256 10.58996195 18 14 C15.7460806 18.95862269 12.0532924 21.62658876 7.8125 24.8125 C7.15830078 25.31458984 6.50410156 25.81667969 5.83007812 26.33398438 C4.22580711 27.56353515 2.61367426 28.78281638 1 30 C0.34 29.01 -0.32 28.02 -1 27 C-1.45117188 26.34644531 -1.90234375 25.69289063 -2.3671875 25.01953125 C-11 12.38341969 -11 12.38341969 -11 6.1875 C-10 3 -10 3 -8.3125 1.0625 C-5.26397123 -0.33817538 -3.32073048 -0.4842732 0 0 Z " fill="#98200E" transform="translate(128,59)"/>
<path d="M0 0 C3.5 0.1875 3.5 0.1875 5.5 1.1875 C6.76084248 6.10885291 7.0733336 10.68416621 4.5 15.1875 C3.51971384 16.53539347 2.52028865 17.86962715 1.5 19.1875 C1.07074219 20.13496094 1.07074219 20.13496094 0.6328125 21.1015625 C-1.42307692 24.88723474 -4.69171329 27.27008735 -8.5 29.1875 C-11.49237432 29.39544466 -13.54409841 28.9264754 -16.5 28.1875 C-16.933125 27.011875 -16.933125 27.011875 -17.375 25.8125 C-18.34912254 23.09078368 -18.34912254 23.09078368 -20.5 21.1875 C-20.73218796 16.69853278 -20.57543848 14.43076871 -17.59765625 10.98828125 C-13.78707968 7.5581283 -9.8911986 4.81779849 -5.5 2.1875 C-3.5 0.1875 -3.5 0.1875 0 0 Z " fill="#5A390B" transform="translate(66.5,67.8125)"/>
<path d="M0 0 C4.1976439 0.5761472 5.56834585 2.20207429 8.1875 5.4375 C8.1875 6.0975 8.1875 6.7575 8.1875 7.4375 C8.765 7.685 9.3425 7.9325 9.9375 8.1875 C12.4877997 9.60433317 14.20535701 11.31377537 16.1875 13.4375 C16.8475 12.7775 17.5075 12.1175 18.1875 11.4375 C18.435 12.324375 18.6825 13.21125 18.9375 14.125 C21.20988061 20.14680861 25.3744672 23.52213497 30.1484375 27.58984375 C33.14494135 30.30506658 35.63241907 33.30752586 38.1875 36.4375 C37.1975 36.9325 37.1975 36.9325 36.1875 37.4375 C35.6925 38.4275 35.6925 38.4275 35.1875 39.4375 C34.81238281 38.97859375 34.43726562 38.5196875 34.05078125 38.046875 C30.99882331 34.38760049 27.97827273 31.35347902 24.1875 28.4375 C21.71196315 26.08272105 19.44836492 23.779323 17.375 21.0625 C14.88352248 18.07272698 12.10601412 15.72578563 9.14453125 13.21484375 C7.35723335 11.59164905 5.91199742 9.96610812 4.4375 8.0625 C2.45825125 5.32854261 2.45825125 5.32854261 -0.125 4.5625 C-0.9603125 4.500625 -0.9603125 4.500625 -1.8125 4.4375 C-2.21254242 5.32699089 -2.21254242 5.32699089 -2.6206665 6.23445129 C-3.83633913 8.48156551 -5.06027639 9.90972951 -6.88183594 11.6862793 C-7.50298279 12.29759201 -8.12412964 12.90890472 -8.76409912 13.53874207 C-9.43491516 14.18982437 -10.1057312 14.84090668 -10.796875 15.51171875 C-12.22148088 16.91588708 -13.64595583 18.32018826 -15.0703125 19.72460938 C-17.31022535 21.92122116 -19.55255143 24.11529156 -21.79785156 26.30639648 C-23.97085614 28.4306693 -26.13420327 30.56443422 -28.296875 32.69921875 C-28.95959412 33.3401799 -29.62231323 33.98114105 -30.30511475 34.64152527 C-39.17606859 43.41894855 -44.98292364 52.82221813 -45.8125 65.4375 C-46.1425 65.4375 -46.4725 65.4375 -46.8125 65.4375 C-48.38644799 55.05795108 -47.32840786 48.9988288 -41.21533203 40.42919922 C-36.16467884 34.14077164 -30.2644481 28.62600225 -24.5 23 C-22.56802605 21.10319226 -20.63828691 19.20418252 -18.71113586 17.30247498 C-17.52015602 16.12836896 -16.32610219 14.95737067 -15.12858582 13.78993225 C-12.72933383 11.43421277 -10.68482032 9.24598048 -8.8125 6.4375 C-8.1525 6.4375 -7.4925 6.4375 -6.8125 6.4375 C-6.379375 5.509375 -6.379375 5.509375 -5.9375 4.5625 C-4.30895016 1.4863503 -3.49599537 0.5438215 0 0 Z " fill="#90220F" transform="translate(76.8125,36.5625)"/>
<path d="M0 0 C0.33 0 0.66 0 1 0 C1 1.98 1 3.96 1 6 C1.66 6 2.32 6 3 6 C3.66 5.01 4.32 4.02 5 3 C5.16435547 4.33804688 5.16435547 4.33804688 5.33203125 5.703125 C5.49058594 6.87359375 5.64914063 8.0440625 5.8125 9.25 C6.03873047 10.99023438 6.03873047 10.99023438 6.26953125 12.765625 C7.00474549 16.02101211 7.90013764 17.49167126 10 20 C10 20.66 10 21.32 10 22 C17.19964081 24.98651767 24.75663418 26.76218555 32.37109375 24.203125 C35.17497211 22.86549496 37.4165207 21.59921036 39.59375 19.36328125 C41 18 41 18 43 18 C43.84591887 27.0936279 40.68689248 36.8913844 35 44 C34.01 43.34 33.02 42.68 32 42 C33.41807378 37.52761347 35.11304374 33.28853694 37 29 C36.14921875 29.3196875 35.2984375 29.639375 34.421875 29.96875 C27.80487937 31.96291307 20.51727598 32.37293149 14.0078125 29.83203125 C7.36985234 26.00092368 3.13731324 21.75258215 0.52734375 14.40234375 C-0.51370905 9.65976988 -0.21711713 4.82482518 0 0 Z " fill="#BE8115" transform="translate(31,93)"/>
<path d="M0 0 C3.46125202 1.94219077 6.20719483 3.96666141 8.98828125 6.79296875 C9.69404297 7.50517578 10.39980469 8.21738281 11.12695312 8.95117188 C11.84818359 9.68916016 12.56941406 10.42714844 13.3125 11.1875 C14.05306641 11.93708984 14.79363281 12.68667969 15.55664062 13.45898438 C17.37571712 15.30153282 19.18994389 17.14859662 21 19 C21.66 18.67 22.32 18.34 23 18 C23.804375 19.7015625 23.804375 19.7015625 24.625 21.4375 C26.67771893 25.5650101 29.11988827 29.32358447 31.73046875 33.1171875 C33 35 33 35 34 37 C34.66 36.67 35.32 36.34 36 36 C38.88687545 47.6506045 38.32610965 58.28637639 36 70 C32.7 69.34 29.4 68.68 26 68 C26.268125 67.34 26.53625 66.68 26.8125 66 C27.204375 65.01 27.59625 64.02 28 63 C28.53625 61.824375 29.0725 60.64875 29.625 59.4375 C32.53830558 51.50434481 31.86013668 43.11323833 28.38671875 35.49609375 C22.55170543 24.99306978 14.38834371 15.45275986 5 8 C0 2.83950617 0 2.83950617 0 0 Z " fill="#B9934D" transform="translate(95,51)"/>
<path d="M0 0 C3.33545805 0.58595885 6.37547159 1.45587335 9.4375 2.9375 C8.2309375 3.80375 8.2309375 3.80375 7 4.6875 C4.45883261 6.91876893 3.78629632 7.68206771 3.4375 10.9375 C5.9125 11.4325 5.9125 11.4325 8.4375 11.9375 C8.4375 12.5975 8.4375 13.2575 8.4375 13.9375 C10.4175 13.9375 12.3975 13.9375 14.4375 13.9375 C13.7775 15.5875 13.1175 17.2375 12.4375 18.9375 C6.31043841 19.633757 2.09578276 17.7217409 -3.47265625 15.25 C-7.73639107 13.43885601 -12.09814083 12.1523588 -16.5625 10.9375 C-16.5625 11.5975 -16.5625 12.2575 -16.5625 12.9375 C-18.58295442 12.33566251 -20.58361039 11.66443904 -22.5625 10.9375 C-22.8925 10.2775 -23.2225 9.6175 -23.5625 8.9375 C-22.69367188 8.70675781 -21.82484375 8.47601563 -20.9296875 8.23828125 C-13.48168592 6.3836163 -13.48168592 6.3836163 -7.3125 2.125 C-4.23372183 -0.32402809 -3.71984523 -0.35311133 0 0 Z " fill="#C9A761" transform="translate(131.5625,126.0625)"/>
<path d="M0 0 C-0.1749647 6.40125254 -3.51084486 9.12163503 -7.88671875 13.26953125 C-8.5813472 13.94996994 -9.27597565 14.63040863 -9.99165344 15.33146667 C-12.2120264 17.50408967 -14.44818702 19.65941635 -16.6875 21.8125 C-18.90729358 23.95642385 -21.12304614 26.10403939 -23.32978821 28.26139832 C-24.7008744 29.60091673 -26.07948522 30.93279457 -27.46696472 32.25532532 C-33.52201733 38.15481456 -38.95998864 44.65772791 -40.875 53.0625 C-41.09929688 54.00222656 -41.32359375 54.94195312 -41.5546875 55.91015625 C-41.70164063 56.59980469 -41.84859375 57.28945312 -42 58 C-42.99 57.67 -43.98 57.34 -45 57 C-45.67218225 49.74043166 -43.94852061 45.0810594 -40 39 C-32.76016003 30.413324 -24.68175947 22.49537343 -16.74438477 14.55908203 C-14.90287998 12.71533788 -13.06959247 10.86365277 -11.23632812 9.01171875 C-10.06298674 7.83545177 -8.88917704 6.65965171 -7.71484375 5.484375 C-7.16908188 4.93142761 -6.62332001 4.37848022 -6.0610199 3.80877686 C-2.22889202 0 -2.22889202 0 0 0 Z " fill="#E8C976" transform="translate(77,42)"/>
<path d="M0 0 C0.80944669 2.88900079 1.14008904 5.57240143 1.3125 8.5625 C2.0293962 16.13471613 4.25090178 24.71704488 10 30 C17.11852409 35.66640831 24.16468306 35.83491631 33 35 C35.50717438 34.52491441 37.61002779 33.9104656 40 33 C38.1074692 38.39371278 35.95534402 43.1083961 33 48 C32.56171875 47.59007812 32.1234375 47.18015625 31.671875 46.7578125 C25.85939294 41.81956554 20.49216972 40.72424307 13 40 C13.33 38.68 13.66 37.36 14 36 C13.4121875 35.8865625 12.824375 35.773125 12.21875 35.65625 C7.01386724 34.11677764 3.11349226 29.8628061 0.5625 25.1875 C-2.30194415 18.05087206 -2.41056129 7.23168387 0 0 Z " fill="#3E0E05" transform="translate(29,88)"/>
<path d="M0 0 C6.49278326 -1.24688398 12.98972119 0.10104521 19.27734375 1.7734375 C25.22216019 3.32076878 31.17988534 4.73504628 37.18359375 6.03515625 C38.7220536 6.37282649 40.26046505 6.7107173 41.79882812 7.04882812 C44.147873 7.56418108 46.49752605 8.07526336 48.84985352 8.57543945 C51.17223235 9.07088342 53.49047897 9.58268318 55.80859375 10.09765625 C56.51882187 10.24461441 57.22904999 10.39157257 57.96080017 10.54298401 C59.92749023 10.98852539 59.92749023 10.98852539 63 12 C63.495 13.485 63.495 13.485 64 15 C56.08868006 14.48144477 48.6255291 12.8831452 40.9375 11 C34.27595191 9.37392263 27.77754892 7.83755708 20.94165039 7.21533203 C18.13013181 6.90353027 15.47213994 6.19081947 12.75 5.4375 C9.03248461 4.40977419 5.86200754 3.83790844 2 4 C0.15209462 7.31016094 -0.74541487 10.57173491 -1.625 14.25 C-1.88539062 15.32765625 -2.14578125 16.4053125 -2.4140625 17.515625 C-2.60742188 18.33546875 -2.80078125 19.1553125 -3 20 C-3.66 20 -4.32 20 -5 20 C-4.05940594 6.08910891 -4.05940594 6.08910891 0 0 Z " fill="#F1EAC9" transform="translate(101,28)"/>
<path d="M0 0 C-0.46501917 4.74319553 -1.04202021 8.19688313 -4 12 C-9.4203179 15.70168052 -12.56679958 16.1037613 -19 16 C-19.7826087 7.04347826 -19.7826087 7.04347826 -16.75 3 C-11.69556665 -0.67595153 -6.19836344 -3.09918172 0 0 Z " fill="#774E12" transform="translate(71,73)"/>
<path d="M0 0 C5.1299787 5.82952125 5.47209594 12.6113364 5.3046875 20.0703125 C4.52533391 27.564097 0.66956419 31.79142624 -4.90234375 36.5546875 C-9.5398951 39.75002083 -13.40991529 40.27409519 -19 40.25 C-20.19625 40.25515625 -21.3925 40.2603125 -22.625 40.265625 C-25.87217786 40.01006008 -28.03595402 39.24913366 -31 38 C-31.99 38.495 -31.99 38.495 -33 39 C-33.33 36.69 -33.66 34.38 -34 32 C-32.948125 32.474375 -31.89625 32.94875 -30.8125 33.4375 C-24.01709764 36.3187506 -17.39223861 37.09241582 -10.3125 34.8125 C-5.58248065 32.2243762 -1.92608764 29.11055253 0 24 C0.19270969 21.33040405 0.27934425 18.79043613 0.25 16.125 C0.25773437 15.43019531 0.26546875 14.73539063 0.2734375 14.01953125 C0.25693068 9.63697006 -0.39211043 6.07076804 -2 2 C-1.34 1.34 -0.68 0.68 0 0 Z " fill="#A7620A" transform="translate(118,84)"/>
<path d="M0 0 C4.1976439 0.5761472 5.56834585 2.20207429 8.1875 5.4375 C8.1875 6.0975 8.1875 6.7575 8.1875 7.4375 C8.765 7.685 9.3425 7.9325 9.9375 8.1875 C12.4877997 9.60433317 14.20535701 11.31377537 16.1875 13.4375 C16.8475 12.7775 17.5075 12.1175 18.1875 11.4375 C18.435 12.324375 18.6825 13.21125 18.9375 14.125 C21.20988061 20.14680861 25.3744672 23.52213497 30.1484375 27.58984375 C33.14494135 30.30506658 35.63241907 33.30752586 38.1875 36.4375 C37.1975 36.9325 37.1975 36.9325 36.1875 37.4375 C35.6925 38.4275 35.6925 38.4275 35.1875 39.4375 C34.81238281 38.97859375 34.43726563 38.5196875 34.05078125 38.046875 C30.99882331 34.38760049 27.97827273 31.35347902 24.1875 28.4375 C21.71196315 26.08272105 19.44836492 23.779323 17.375 21.0625 C14.92111126 18.11783351 12.19886158 15.82282305 9.28125 13.3515625 C6.46773684 10.77950756 4.10650207 7.91568074 1.73046875 4.94140625 C0.18855047 3.08850803 0.18855047 3.08850803 -2.8125 3.4375 C-3.4725 3.1075 -4.1325 2.7775 -4.8125 2.4375 C-2.8125 0.4375 -2.8125 0.4375 0 0 Z " fill="#6F230E" transform="translate(76.8125,36.5625)"/>
<path d="M0 0 C2.25 -0.375 2.25 -0.375 5 0 C7.125 2.8125 7.125 2.8125 9 6 C10.84533683 8.47587513 11.66963537 8.94842409 14.77734375 9.43359375 C15.82019531 9.43488281 16.86304688 9.43617188 17.9375 9.4375 C18.97777344 9.45683594 20.01804687 9.47617188 21.08984375 9.49609375 C24.63485372 8.89177661 25.64611759 7.61484498 28 5 C30.25 5.25 30.25 5.25 32 6 C32.625 7.8125 32.625 7.8125 33 10 C32.34 10.99 31.68 11.98 31 13 C30.0925 12.67 29.185 12.34 28.25 12 C24.92954193 10.80394277 24.92954193 10.80394277 21 11 C21.020625 11.969375 21.04125 12.93875 21.0625 13.9375 C21 17 21 17 20 18 C17.32941149 18.14115161 14.67567762 18.04247107 12 18 C11.67 16.68 11.34 15.36 11 14 C10.1028125 13.8453125 10.1028125 13.8453125 9.1875 13.6875 C6.68741714 12.90175967 5.62464918 12.03081147 4 10 C4 9.34 4 8.68 4 8 C3.34 8 2.68 8 2 8 C0.23537317 4.91190305 0 3.76687864 0 0 Z " fill="#932F14" transform="translate(30,147)"/>
<path d="M0 0 C2.475 0.99 2.475 0.99 5 2 C5 5.2797731 4.2803977 7.3552829 3.1875 10.4375 C1.82007628 14.43495124 0.60134746 18.38998643 -0.375 22.5 C-1.72696965 28.12330232 -3.33583282 33.65045447 -5 39.1875 C-5.24927246 40.01894531 -5.49854492 40.85039063 -5.75537109 41.70703125 C-7.40866529 47.17103306 -9.16628782 52.59396289 -11 58 C-11.33 58 -11.66 58 -12 58 C-11.3550192 52.39751972 -10.48881589 46.90239818 -9.375 41.375 C-9.20967773 40.5490332 -9.04435547 39.72306641 -8.87402344 38.87207031 C-6.21170361 25.85158902 -3.07277296 12.9284461 0 0 Z " fill="#9C783E" transform="translate(164,62)"/>
<path d="M0 0 C0.66 0.33 1.32 0.66 2 1 C1.01 2.32 0.02 3.64 -1 5 C-0.34 5.33 0.32 5.66 1 6 C-1 8 -1 8 -3.9375 8.9375 C-7.00640706 10.00222286 -7.88672332 10.70296013 -10 13 C-10.763125 13.45375 -11.52625 13.9075 -12.3125 14.375 C-18.30526071 17.71675534 -18.30526071 17.71675534 -21.71875 23.2890625 C-22.02312688 24.8870411 -22.28001624 26.4950641 -22.48046875 28.109375 C-22.65191406 28.73328125 -22.82335938 29.3571875 -23 30 C-26.62326739 31.2077558 -27.64146369 30.54311128 -31 29 C-29.57014313 24.5049902 -27.07631178 21.53656463 -23.875 18.1875 C-23.38362549 17.66704102 -22.89225098 17.14658203 -22.38598633 16.61035156 C-21.39371471 15.56265751 -20.3983899 14.51784597 -19.39990234 13.47607422 C-18.14530464 12.153211 -16.92380805 10.79913845 -15.70703125 9.44140625 C-10.74523133 4.05732549 -10.74523133 4.05732549 -6.75 3.75 C-5.8425 3.8325 -4.935 3.915 -4 4 C-1.62280307 2.12498069 -1.62280307 2.12498069 0 0 Z " fill="#3D280C" transform="translate(69,60)"/>
<path d="M0 0 C1.25541557 3.76624671 0.37061958 5.37188934 -1 9 C-3.31 9 -5.62 9 -8 9 C-7.84402344 9.62648437 -7.68804687 10.25296875 -7.52734375 10.8984375 C-7.33269531 11.71570313 -7.13804687 12.53296875 -6.9375 13.375 C-6.64166016 14.59316406 -6.64166016 14.59316406 -6.33984375 15.8359375 C-6 18 -6 18 -7 20 C-8.32 20 -9.64 20 -11 20 C-11 19.34 -11 18.68 -11 18 C-11.61875 18.20625 -12.2375 18.4125 -12.875 18.625 C-13.57625 18.74875 -14.2775 18.8725 -15 19 C-15.66 18.34 -16.32 17.68 -17 17 C-16.9375 15.125 -16.9375 15.125 -16 13 C-13.4375 10.75 -13.4375 10.75 -11 9 C-17.91159038 7.27071163 -17.91159038 7.27071163 -25 7 C-24.34 5.68 -23.68 4.36 -23 3 C-15.83437211 2.71899498 -9.05453001 3.79556805 -2 5 C-1.34 3.35 -0.68 1.7 0 0 Z " fill="#A9823D" transform="translate(151,120)"/>
<path d="M0 0 C11.88 0 23.76 0 36 0 C36.495 1.485 36.495 1.485 37 3 C34.02260155 4.48869923 31.26404835 4.18522772 27.9453125 4.24609375 C26.51171271 4.27903521 25.07811911 4.3122468 23.64453125 4.34570312 C21.38432106 4.3930875 19.12413544 4.43751503 16.86376953 4.47680664 C14.68235037 4.51660312 12.5014462 4.56813076 10.3203125 4.62109375 C8.35989014 4.65867798 8.35989014 4.65867798 6.35986328 4.69702148 C3.29352291 4.97353132 1.564476 5.37680603 -1 7 C-0.67 4.69 -0.34 2.38 0 0 Z " fill="#350802" transform="translate(65,148)"/>
<path d="M0 0 C3.14343293 0.59842159 4.9370579 1.60781141 7.4375 3.5625 C13.44011375 7.451834 20.57616086 6.86019094 27.390625 5.53515625 C29.46127842 4.98775173 29.46127842 4.98775173 32 4 C28.08017995 8.33980077 26.04699644 8.86122058 20.3125 9.25 C16.17791824 9.21897124 12.72820772 8.10329768 8.8828125 6.65625 C7.01755535 5.89029052 7.01755535 5.89029052 5 6 C5.19335938 6.58007812 5.38671875 7.16015625 5.5859375 7.7578125 C7.05729167 12.171875 8.52864583 16.5859375 10 21 C9.34 21.33 8.68 21.66 8 22 C9.32 24.31 10.64 26.62 12 29 C7.86319754 27.62106585 7.24843506 25.54911944 5.2734375 21.80859375 C2.09450496 14.79738978 -0.31367557 7.74894833 0 0 Z " fill="#BB8721" transform="translate(80,112)"/>
<path d="M0 0 C5.26553006 0.02387995 8.88503937 0.43137951 12.875 4.0625 C13.67550781 4.88427734 13.67550781 4.88427734 14.4921875 5.72265625 C16.05214996 7.32319259 16.05214996 7.32319259 19 7 C19.99 8.485 19.99 8.485 21 10 C20.125 13.1875 20.125 13.1875 19 16 C17.35 16 15.7 16 14 16 C14 15.01 14 14.02 14 13 C13.34 13 12.68 13 12 13 C11.278125 12.236875 10.55625 11.47375 9.8125 10.6875 C6.58603234 7.6044309 4.13203526 6.53938569 0 5 C0 3.35 0 1.7 0 0 Z " fill="#983416" transform="translate(45,128)"/>
<path d="M0 0 C1.32 0.33 2.64 0.66 4 1 C4.8320582 6.72040011 5.12036664 12.22240116 5 18 C3.35 18 1.7 18 0 18 C0.33 16.35 0.66 14.7 1 13 C-0.65 13 -2.3 13 -4 13 C-4 13.99 -4 14.98 -4 16 C-5.65 16 -7.3 16 -9 16 C-7.56691865 12.04093183 -5.66858051 8.71281819 -3.375 5.1875 C-2.74335937 4.21167969 -2.11171875 3.23585937 -1.4609375 2.23046875 C-0.73777344 1.12638672 -0.73777344 1.12638672 0 0 Z " fill="#A72B18" transform="translate(109,35)"/>
<path d="M0 0 C2.475 0.495 2.475 0.495 5 1 C5 1.66 5 2.32 5 3 C5.99 3.33 6.98 3.66 8 4 C9.6484375 5.671875 9.6484375 5.671875 11.375 7.75 C14.79890838 11.78660778 18.31888196 15.58432165 22.375 19 C24 21 24 21 23.75 23.75 C23.5025 24.4925 23.255 25.235 23 26 C18.28619206 22.14324805 13.89174933 18.0281064 9.5625 13.75 C9.01819336 13.21858398 8.47388672 12.68716797 7.91308594 12.13964844 C6.56872207 10.79870752 5.27925552 9.40318996 4 8 C4 7.34 4 6.68 4 6 C3.01 5.67 2.02 5.34 1 5 C1.33 3.68 1.66 2.36 2 1 C1.34 0.67 0.68 0.34 0 0 Z " fill="#E0B247" transform="translate(75,41)"/>
<path d="M0 0 C0.66 0 1.32 0 2 0 C2.84591887 9.0936279 -0.31310752 18.8913844 -6 26 C-6.99 25.34 -7.98 24.68 -9 24 C-7.39749629 18.79186293 -5.25140683 13.95309502 -3 9 C-6.3 9 -9.6 9 -13 9 C-10.56968833 6.56968833 -8.06519015 5.52542424 -4.97265625 4.09765625 C-2.93055093 3.07936491 -2.93055093 3.07936491 -1.37109375 1.37109375 C-0.91863281 0.91863281 -0.46617188 0.46617188 0 0 Z " fill="#CD911B" transform="translate(72,111)"/>
<path d="M0 0 C3.75212276 2.01502889 5.63644095 3.45466142 8 7 C7.67 7.99 7.34 8.98 7 10 C6.566875 9.21625 6.13375 8.4325 5.6875 7.625 C4.10779753 4.78301625 4.10779753 4.78301625 1 3 C-3.22985401 2.33007837 -6.8326877 2.31669524 -10.5625 4.5 C-12.56715411 7.98635498 -12.91198436 11.13747799 -12 15 C-9.82425584 17.69105198 -8.08934144 19.45532928 -5 21 C-1.32670036 21.13357453 1.49852959 21.1671568 5 20 C5.80563638 17.89415562 5.80563638 17.89415562 6.1875 15.4375 C6.34605469 14.61121094 6.50460938 13.78492188 6.66796875 12.93359375 C6.83232422 11.97646484 6.83232422 11.97646484 7 11 C7.66 11 8.32 11 9 11 C8.93967927 12.4386494 8.85079867 13.87611902 8.75 15.3125 C8.68039063 16.51326172 8.68039063 16.51326172 8.609375 17.73828125 C8 20 8 20 6.3203125 21.7578125 C1.82699863 24.16332396 -3.07406658 23.8286617 -8 23 C-11.67965729 20.80463224 -13.63719456 18.08841633 -15 14 C-15.88172043 7.27688172 -15.88172043 7.27688172 -13.71875 4.14453125 C-9.28248564 -0.10016715 -6.01923788 -0.95543458 0 0 Z " fill="#621106" transform="translate(50,134)"/>
<path d="M0 0 C0.80944669 2.88900079 1.14008904 5.57240143 1.3125 8.5625 C2.03504591 16.19439114 4.28137444 24.60815305 10 30 C12.28316637 31.48923594 14.57402883 32.74036113 17 34 C16.67 34.99 16.34 35.98 16 37 C9.71444437 35.46693765 5.48378572 32.35056139 1.66796875 27.203125 C-2.36030963 19.85827821 -1.52308612 11.11212247 -1 3 C-0.67 2.01 -0.34 1.02 0 0 Z " fill="#501105" transform="translate(29,88)"/>
<path d="M0 0 C1.78664063 0.38478516 1.78664063 0.38478516 3.609375 0.77734375 C4.73859375 1.03386719 5.8678125 1.29039063 7.03125 1.5546875 C8.05798828 1.78397949 9.08472656 2.01327148 10.14257812 2.24951172 C10.92052734 2.53842285 11.69847656 2.82733398 12.5 3.125 C12.995 4.61 12.995 4.61 13.5 6.125 C5.58868006 5.60644477 -1.8744709 4.0081452 -9.5625 2.125 C-16.8829421 0.33808725 -23.98323932 -1.23866047 -31.5 -1.875 C-31.5 -2.205 -31.5 -2.535 -31.5 -2.875 C-20.47003778 -4.45070889 -10.77775815 -2.4549338 0 0 Z " fill="#F3E9BF" transform="translate(151.5,36.875)"/>
<path d="M0 0 C0.99 0 1.98 0 3 0 C4.54035684 9.55437553 4.54035684 9.55437553 2 14 C1.01971384 15.34789347 0.02028865 16.68212715 -1 18 C-1.41378906 18.94939453 -1.41378906 18.94939453 -1.8359375 19.91796875 C-3.24289898 22.43444683 -4.78425706 23.58882759 -7.125 25.25 C-7.84945312 25.77078125 -8.57390625 26.2915625 -9.3203125 26.828125 C-9.87460937 27.21484375 -10.42890625 27.6015625 -11 28 C-11.66 27.67 -12.32 27.34 -13 27 C-11.68 25.68 -10.36 24.36 -9 23 C-9.95712891 22.90912109 -9.95712891 22.90912109 -10.93359375 22.81640625 C-11.75988281 22.73261719 -12.58617187 22.64882812 -13.4375 22.5625 C-14.26121094 22.48128906 -15.08492187 22.40007812 -15.93359375 22.31640625 C-18 22 -18 22 -19 21 C-19.04080783 19.00041636 -19.04254356 16.99954746 -19 15 C-18.34 14.67 -17.68 14.34 -17 14 C-17 15.98 -17 17.96 -17 20 C-8.9236698 18.89232468 -8.9236698 18.89232468 -2 15 C-0.18412794 11.43310846 1.21403659 7.92981707 2 4 C-0.31 3.67 -2.62 3.34 -5 3 C-5 2.67 -5 2.34 -5 2 C-3.35 2 -1.7 2 0 2 C0 1.34 0 0.68 0 0 Z " fill="#6A450F" transform="translate(69,69)"/>
<path d="M0 0 C1.32 0 2.64 0 4 0 C4.33 5.94 4.66 11.88 5 18 C3.35 17.67 1.7 17.34 0 17 C0 15.68 0 14.36 0 13 C-0.99 12.67 -1.98 12.34 -3 12 C-3 13.32 -3 14.64 -3 16 C-4.65 16 -6.3 16 -8 16 C-8 15.34 -8 14.68 -8 14 C-7.34 14 -6.68 14 -6 14 C-5.7525 13.175 -5.505 12.35 -5.25 11.5 C-3.81295189 7.47626529 -1.97645485 3.78020976 0 0 Z " fill="#95240F" transform="translate(143,98)"/>
<path d="M0 0 C2.125 0.375 2.125 0.375 4 1 C-0.79860747 4.85974949 -4.90835337 6.85334882 -10.86328125 8.421875 C-13.02976654 8.9323463 -13.02976654 8.9323463 -15 10 C-17.35981813 9.06421005 -19.69631264 8.06652192 -22 7 C-22 6.34 -22 5.68 -22 5 C-20.0995695 4.52489237 -18.19888189 4.05078827 -16.296875 3.58203125 C-14.80216731 3.20327029 -13.31204941 2.80574057 -11.828125 2.38671875 C-6.40778252 0.88899254 -6.40778252 0.88899254 -3.890625 1.57421875 C-3.26671875 1.71472656 -2.6428125 1.85523438 -2 2 C-1.34 1.34 -0.68 0.68 0 0 Z " fill="#956F28" transform="translate(122,127)"/>
<path d="M0 0 C0.375 2.6875 0.375 2.6875 0 6 C-3.06142239 9.35298642 -4.80527384 10.88937721 -9.375 11.3125 C-10.24125 11.209375 -11.1075 11.10625 -12 11 C-12.33074549 7.36179956 -12.48805542 5.6226914 -10.1875 2.6875 C-6.8049748 0.07812341 -4.14302524 -0.11197366 0 0 Z " fill="#A16C18" transform="translate(66,76)"/>
<path d="M0 0 C5.7744817 0.85595193 10.84267991 2.24577996 16.1875 4.625 C20.79979108 6.65440807 24.00360616 7.56777203 29 7 C29.99 5.02 30.98 3.04 32 1 C32.33 1 32.66 1 33 1 C33.36750482 7.49258508 33.36750482 7.49258508 31.74243164 9.73632812 C28.94547784 11.76477606 26.80552143 11.03623557 23.52294922 10.546875 C19.20891193 9.61176338 15.16703127 8.10318163 11.0625 6.5 C10.21365234 6.17902344 9.36480469 5.85804688 8.49023438 5.52734375 C2.49527616 3.24763808 2.49527616 3.24763808 0 2 C0 1.34 0 0.68 0 0 Z " fill="#D4B87B" transform="translate(115,137)"/>
<path d="M0 0 C0 5.31914972 -3.14994418 9.7377959 -6.0625 14.0625 C-10.11550245 20.20737469 -11.52565401 25.78666953 -12 33 C-12.33 33 -12.66 33 -13 33 C-14.64152543 22.1748053 -13.35092495 16.14422132 -6.8203125 7.27734375 C-4.69817147 4.62239049 -2.51284921 2.28440837 0 0 Z " fill="#7F1D0D" transform="translate(43,69)"/>
<path d="M0 0 C13.365 0.495 13.365 0.495 27 1 C27 1.33 27 1.66 27 2 C19.74 2 12.48 2 5 2 C5 3.32 5 4.64 5 6 C14.9 6 24.8 6 35 6 C35 6.33 35 6.66 35 7 C23.78 7 12.56 7 1 7 C1 8.65 1 10.3 1 12 C0.67 12 0.34 12 0 12 C0 8.04 0 4.08 0 0 Z " fill="#6F3F13" transform="translate(64,141)"/>
<path d="M0 0 C1.875 0.9375 1.875 0.9375 3.1875 2.6875 C4.0318112 5.45070029 3.63943018 7.18555136 2.875 9.9375 C1.555 9.9375 0.235 9.9375 -1.125 9.9375 C-1.125 9.2775 -1.125 8.6175 -1.125 7.9375 C-1.74375 8.14375 -2.3625 8.35 -3 8.5625 C-3.70125 8.68625 -4.4025 8.81 -5.125 8.9375 C-5.785 8.2775 -6.445 7.6175 -7.125 6.9375 C-6.94475237 4.14366178 -6.30054036 3.11304036 -4.3125 1.125 C-2.125 -0.0625 -2.125 -0.0625 0 0 Z " fill="#992610" transform="translate(141.125,130.0625)"/>
<path d="M0 0 C5.38924732 6.12414468 5.27952878 13.28189975 5 21 C3.68 21.33 2.36 21.66 1 22 C0.95101562 21.05898437 0.90203125 20.11796875 0.8515625 19.1484375 C0.77679688 17.90320313 0.70203125 16.65796875 0.625 15.375 C0.55539063 14.14523438 0.48578125 12.91546875 0.4140625 11.6484375 C0.0185513 8.16346145 -0.76261849 5.26950399 -2 2 C-1.34 1.34 -0.68 0.68 0 0 Z " fill="#C0790C" transform="translate(118,84)"/>
<path d="M0 0 C3.46125202 1.94219077 6.20719483 3.96666141 8.98828125 6.79296875 C9.69404297 7.50517578 10.39980469 8.21738281 11.12695312 8.95117188 C11.84818359 9.68916016 12.56941406 10.42714844 13.3125 11.1875 C14.05306641 11.93708984 14.79363281 12.68667969 15.55664062 13.45898438 C17.37571712 15.30153282 19.18994389 17.14859662 21 19 C21.66 18.67 22.32 18.34 23 18 C23 19.32 23 20.64 23 22 C22.01 22.33 21.02 22.66 20 23 C19.26394531 22.19175781 18.52789062 21.38351563 17.76953125 20.55078125 C16.78391591 19.47129779 15.79823535 18.39187388 14.8125 17.3125 C14.32974609 16.78205078 13.84699219 16.25160156 13.34960938 15.70507812 C9.596087 11.59887579 5.73033267 7.63680118 1.6875 3.8125 C0 2 0 2 0 0 Z " fill="#CCA765" transform="translate(95,51)"/>
<path d="M0 0 C0.99 0 1.98 0 3 0 C5.0078125 2.23046875 5.0078125 2.23046875 7.125 5.1875 C7.82882813 6.15042969 8.53265625 7.11335938 9.2578125 8.10546875 C10.94374114 10.90652955 11.72162214 12.76863351 12 16 C11.0625 18.8125 11.0625 18.8125 10 21 C9.67 21 9.34 21 9 21 C8.77957031 20.18208984 8.77957031 20.18208984 8.5546875 19.34765625 C6.9105962 13.82010792 4.62552529 9.58647959 1.20703125 4.9453125 C0 3 0 3 0 0 Z " fill="#5B1A08" transform="translate(113,74)"/>
<path d="M0 0 C0.33 0 0.66 0 1 0 C0.82843426 6.48830426 -0.52918168 12.39748173 -2.4375 18.5625 C-2.7636731 19.63467773 -2.7636731 19.63467773 -3.09643555 20.72851562 C-3.66704409 22.50745907 -4.32682044 24.25728282 -5 26 C-5.66 26.33 -6.32 26.66 -7 27 C-7.32019214 21.69155137 -6.17187609 17.38062149 -4.625 12.375 C-4.40328125 11.62476562 -4.1815625 10.87453125 -3.953125 10.1015625 C-2.8893062 6.57218717 -1.82592757 3.22523655 0 0 Z " fill="#E5CB8B" transform="translate(169,66)"/>
<path d="M0 0 C1.134375 0.474375 2.26875 0.94875 3.4375 1.4375 C7.91298952 3.1348234 12.24712186 3.68094105 17 4 C17 4.99 17 5.98 17 7 C13.30458414 7.95024979 10.69541586 7.95024979 7 7 C6.67 7.66 6.34 8.32 6 9 C6 8.34 6 7.68 6 7 C4.35 6.67 2.7 6.34 1 6 C0.67 4.02 0.34 2.04 0 0 Z " fill="#3D0B03" transform="translate(86,121)"/>
<path d="M0 0 C9.95662322 -0.67886067 18.52181404 1.30569333 28 4 C28 4.66 28 5.32 28 6 C20.70968976 6.2494783 14.09326321 5.72330907 7 4 C7.99 3.34 8.98 2.68 10 2 C6.37 2 2.74 2 -1 2 C-0.67 1.34 -0.34 0.68 0 0 Z " fill="#E7E0C3" transform="translate(101,28)"/>
<path d="M0 0 C0.33 0 0.66 0 1 0 C1 1.98 1 3.96 1 6 C1.66 6 2.32 6 3 6 C3.66 5.01 4.32 4.02 5 3 C5.33 7.95 5.66 12.9 6 18 C5.01 18.33 4.02 18.66 3 19 C-0.44572039 12.68284595 -0.31461385 7.09629025 0 0 Z " fill="#CF941D" transform="translate(31,93)"/>
<path d="M0 0 C0.66 0 1.32 0 2 0 C2.08159574 4.16138263 1.98248524 7.9472484 1 12 C0.34 11.34 -0.32 10.68 -1 10 C-3.10185944 9.57595263 -3.10185944 9.57595263 -5.4375 9.4375 C-8.23687087 9.21152113 -10.30459034 8.89846989 -13 8 C-12.31292969 7.67386719 -11.62585937 7.34773438 -10.91796875 7.01171875 C-10.01691406 6.57472656 -9.11585937 6.13773437 -8.1875 5.6875 C-7.29417969 5.25824219 -6.40085937 4.82898438 -5.48046875 4.38671875 C-3.19714024 3.11021226 -1.80235146 1.8456512 0 0 Z " fill="#C28F25" transform="translate(72,111)"/>
<path d="M0 0 C0.66 0.66 1.32 1.32 2 2 C-0.68287823 5.47196006 -3.82289183 6.0949599 -8 7 C-10.33215844 7.07403678 -12.66860788 7.09515886 -15 7 C-15 6.67 -15 6.34 -15 6 C-13.02 5.67 -11.04 5.34 -9 5 C-8.67 3.02 -8.34 1.04 -8 -1 C-4.59407832 -2.2164006 -3.04320125 -1.92736079 0 0 Z " fill="#831C0B" transform="translate(59,159)"/>
<path d="M0 0 C0.66 0.33 1.32 0.66 2 1 C1.0409375 1.4021875 1.0409375 1.4021875 0.0625 1.8125 C-2.33131686 2.88667752 -2.33131686 2.88667752 -3 6 C-6.35276343 8.32114391 -10.02418958 8.54125264 -14 9 C-14.33 7.68 -14.66 6.36 -15 5 C-14.01 4.731875 -13.02 4.46375 -12 4.1875 C-9.151197 3.3868181 -6.43578646 2.40779515 -3.6875 1.3125 C-2.470625 0.879375 -1.25375 0.44625 0 0 Z " fill="#6F4711" transform="translate(113,124)"/>
<path d="M0 0 C1.65 0.33 3.3 0.66 5 1 C4.37806106 2.75109022 3.75232002 4.50083031 3.125 6.25 C2.77695312 7.22453125 2.42890625 8.1990625 2.0703125 9.203125 C1.16725355 11.56294327 0.17921582 13.76905116 -1 16 C-1.66 15.67 -2.32 15.34 -3 15 C-3.3152595 9.01006953 -2.68219822 5.36439644 0 0 Z " fill="#E8C161" transform="translate(35,84)"/>
<path d="M0 0 C1.670625 0.061875 1.670625 0.061875 3.375 0.125 C3.045 1.115 2.715 2.105 2.375 3.125 C0.484375 3.96875 0.484375 3.96875 -1.875 4.625 C-7.11850369 6.24285319 -10.76326064 7.92768109 -14.25 12.25 C-16.625 15.125 -16.625 15.125 -19.625 16.125 C-18.82093415 10.74485353 -14.70512439 8.29671934 -10.625 5.125 C-8.98081617 4.08844932 -7.32169715 3.07315429 -5.625 2.125 C-3.625 0.125 -3.625 0.125 0 0 Z " fill="#50340D" transform="translate(66.625,67.875)"/>
<path d="M0 0 C2.40267806 2.267043 3.56842108 3.65526335 4 7 C3.67 7.66 3.34 8.32 3 9 C3.30035156 9.70511719 3.60070312 10.41023438 3.91015625 11.13671875 C5.27048087 14.7106182 5.42337406 18.03734292 5.4375 21.8125 C5.44136719 22.52083984 5.44523437 23.22917969 5.44921875 23.95898438 C5.31404349 30.08129732 3.86008251 33.36790099 0 38 C-0.66 37.67 -1.32 37.34 -2 37 C-1.360625 36.0925 -0.72125 35.185 -0.0625 34.25 C2.82406275 29.70147689 3.15376538 26.41281022 3.1875 21.0625 C3.20167969 20.04285156 3.21585937 19.02320312 3.23046875 17.97265625 C2.99170195 14.89296926 2.18413499 12.82751626 1 10 C0.5859375 7.32421875 0.5859375 7.32421875 0.375 4.6875 C0.26285156 3.36298828 0.26285156 3.36298828 0.1484375 2.01171875 C0.07496094 1.01591797 0.07496094 1.01591797 0 0 Z " fill="#C18D24" transform="translate(114,78)"/>
<path d="M0 0 C0.99 0.33 1.98 0.66 3 1 C2.66226563 1.9178125 2.32453125 2.835625 1.9765625 3.78125 C-0.33125806 10.13109153 -2.54593327 16.39060576 -4 23 C-4.33 23 -4.66 23 -5 23 C-5.43279438 15.61043675 -4.63395184 8.95943239 -2 2 C-1.34 1.34 -0.68 0.68 0 0 Z " fill="#B99550" transform="translate(167,64)"/>
<path d="M0 0 C6.27 0 12.54 0 19 0 C19 0.99 19 1.98 19 3 C12.73 3 6.46 3 0 3 C0 2.01 0 1.02 0 0 Z " fill="#B36D04" transform="translate(69,144)"/>
<path d="M0 0 C0.66 0.33 1.32 0.66 2 1 C-1.14462061 4.32431322 -4.06295027 6.7110176 -8 9 C-10.06782572 10.50313461 -12.10202708 12.0449351 -14.1328125 13.59765625 C-15.71561014 14.78641012 -17.35296403 15.90197602 -19 17 C-17.60484422 14.01517153 -15.97667625 11.44642111 -14 8.8125 C-13.484375 8.11769531 -12.96875 7.42289062 -12.4375 6.70703125 C-11 5 -11 5 -9 4 C-8.21625 4.061875 -7.4325 4.12375 -6.625 4.1875 C-3.82348131 4.25061558 -3.82348131 4.25061558 -1.6875 2 C-1.130625 1.34 -0.57375 0.68 0 0 Z " fill="#2E1F0B" transform="translate(69,60)"/>
<path d="M0 0 C0 1.65 0 3.3 0 5 C1.32 5.33 2.64 5.66 4 6 C0.7 6.66 -2.6 7.32 -6 8 C-6.28875 7.195625 -6.5775 6.39125 -6.875 5.5625 C-7.73262568 2.8673532 -7.73262568 2.8673532 -10 2 C-6.5980513 -0.09350689 -3.94727588 -0.17942163 0 0 Z " fill="#AD361B" transform="translate(45,128)"/>
<path d="M0 0 C1.66666667 1.66666667 3.33333333 3.33333333 5 5 C5.61875 5.495 6.2375 5.99 6.875 6.5 C8 8 8 8 7.6875 10.6875 C7.460625 11.450625 7.23375 12.21375 7 13 C5.86800647 12.0919838 4.74467637 11.17316174 3.625 10.25 C2.99851562 9.73953125 2.37203125 9.2290625 1.7265625 8.703125 C-0.08312318 6.91800519 -1.00117455 5.32050356 -2 3 C-1.34 2.01 -0.68 1.02 0 0 Z " fill="#DCAB39" transform="translate(91,54)"/>
<path d="M0 0 C0.33 0.99 0.66 1.98 1 3 C2.65 3 4.3 3 6 3 C6 6.96 6 10.92 6 15 C5.01 14.01 4.02 13.02 3 12 C2.01 11.34 1.02 10.68 0 10 C0.33 8.02 0.66 6.04 1 4 C0.34 3.67 -0.32 3.34 -1 3 C-0.67 2.01 -0.34 1.02 0 0 Z " fill="#892813" transform="translate(58,141)"/>
<path d="M0 0 C1.73030291 0.28484846 3.45920714 0.57819938 5.1875 0.875 C6.15042969 1.03742187 7.11335937 1.19984375 8.10546875 1.3671875 C10.91032604 1.98039517 13.37224747 2.85666343 16 4 C16 4.66 16 5.32 16 6 C9.50149789 5.48446121 3.33773468 4.53332291 -3 3 C-2.01 2.67 -1.02 2.34 0 2 C0 1.34 0 0.68 0 0 Z " fill="#F4E5B1" transform="translate(149,37)"/>
<path d="M0 0 C0.969375 0.433125 1.93875 0.86625 2.9375 1.3125 C7.20304583 3.14808325 11.57977593 4.58673108 16 6 C16 6.33 16 6.66 16 7 C11 7 6 7 1 7 C0.67 4.69 0.34 2.38 0 0 Z " fill="#B5710A" transform="translate(84,116)"/>
<path d="M0 0 C1.32 0.33 2.64 0.66 4 1 C4.17942163 4.94727588 4.09350689 7.5980513 2 11 C0.68 11 -0.64 11 -2 11 C-2 3 -2 3 0 0 Z " fill="#B8513A" transform="translate(109,35)"/>
<path d="M0 0 C1.37562854 1.28965176 2.70766393 2.62689293 4 4 C4 4.66 4 5.32 4 6 C4.804375 6.28875 5.60875 6.5775 6.4375 6.875 C9 8 9 8 10 10 C1.80743982 9.80743982 1.80743982 9.80743982 -1.5625 6.4375 C-2.2740625 5.2309375 -2.2740625 5.2309375 -3 4 C-2.67 3.34 -2.34 2.68 -2 2 C-1.34 2 -0.68 2 0 2 C0 1.34 0 0.68 0 0 Z " fill="#C48816" transform="translate(37,109)"/>
<path d="M0 0 C0.99 0.33 1.98 0.66 3 1 C3.33 2.98 3.66 4.96 4 7 C2.68 7.33 1.36 7.66 0 8 C-0.33 9.32 -0.66 10.64 -1 12 C-2.65 12 -4.3 12 -6 12 C-6 11.34 -6 10.68 -6 10 C-5.34 10 -4.68 10 -4 10 C-3.71125 9.0925 -3.4225 8.185 -3.125 7.25 C-2.23468224 4.67797092 -1.28505587 2.38653234 0 0 Z " fill="#AE5331" transform="translate(141,102)"/>
<path d="M0 0 C-0.49230769 7.38461538 -0.49230769 7.38461538 -3.0625 10.5 C-4.0215625 11.2425 -4.0215625 11.2425 -5 12 C-5.66 11.67 -6.32 11.34 -7 11 C-6.525625 10.62875 -6.05125 10.2575 -5.5625 9.875 C-3.47794198 7.37353038 -3.35378509 5.18406582 -3 2 C-5.97 2.66 -8.94 3.32 -12 4 C-12 3.34 -12 2.68 -12 2 C-8.09971775 -0.60018816 -4.52565431 -0.15085514 0 0 Z " fill="#865814" transform="translate(69,74)"/>
<path d="M0 0 C4.24016399 0.81541615 5.52062679 2.62378107 8.1484375 5.8984375 C9.25 7.625 9.25 7.625 9.25 9.625 C8.26 9.955 7.27 10.285 6.25 10.625 C4.27 7.985 2.29 5.345 0.25 2.625 C-1.4 2.955 -3.05 3.285 -4.75 3.625 C-2.75 0.625 -2.75 0.625 0 0 Z " fill="#781A0A" transform="translate(76.75,36.375)"/>
<path d="M0 0 C0.99 0 1.98 0 3 0 C5 3 5 3 4.625 5.1875 C4.41875 5.785625 4.2125 6.38375 4 7 C2.1875 7.625 2.1875 7.625 0 8 C-0.99 7.34 -1.98 6.68 -3 6 C-1.125 1.125 -1.125 1.125 0 0 Z " fill="#DDBD81" transform="translate(34,131)"/>
<path d="M0 0 C0.99 0.33 1.98 0.66 3 1 C2.80664062 1.64066406 2.61328125 2.28132813 2.4140625 2.94140625 C0.9059252 7.95110985 -0.57717786 12.96539857 -2 18 C-2.99 18 -3.98 18 -5 18 C-4.35702496 15.37426939 -3.71075589 12.74942697 -3.0625 10.125 C-2.88009766 9.37863281 -2.69769531 8.63226563 -2.50976562 7.86328125 C-1.11328125 2.2265625 -1.11328125 2.2265625 0 0 Z " fill="#C4A464" transform="translate(161,91)"/>
<path d="M0 0 C2.31 0 4.62 0 7 0 C7 1.98 7 3.96 7 6 C4.36 5.67 1.72 5.34 -1 5 C-0.67 3.35 -0.34 1.7 0 0 Z " fill="#D9B16E" transform="translate(43,158)"/>
<path d="M0 0 C2.1640625 0.0234375 2.1640625 0.0234375 4.625 0.375 C5.85089844 0.54128906 5.85089844 0.54128906 7.1015625 0.7109375 C7.72804688 0.80632812 8.35453125 0.90171875 9 1 C8.01 2.32 7.02 3.64 6 5 C10.95 5.33 15.9 5.66 21 6 C21 6.33 21 6.66 21 7 C11.98871743 7.57682463 5.41471816 7.49238382 -2 2 C-1.34 1.34 -0.68 0.68 0 0 Z " fill="#B47512" transform="translate(41,117)"/>
<path d="M0 0 C1.65 0 3.3 0 5 0 C5.66 1.98 6.32 3.96 7 6 C6.34 6.66 5.68 7.32 5 8 C4.01 8 3.02 8 2 8 C0.23537317 4.91190305 0 3.76687864 0 0 Z " fill="#DCB577" transform="translate(30,147)"/>
<path d="M0 0 C0.81968575 2.96453014 1.23290838 5.81298541 1.5 8.875 C1.8489788 12.61959796 2.31815549 16.29855838 3 20 C1.68 20 0.36 20 -1 20 C-1.02696009 17.2291017 -1.04681952 14.4584655 -1.0625 11.6875 C-1.07087891 10.90181641 -1.07925781 10.11613281 -1.08789062 9.30664062 C-1.09111328 8.54931641 -1.09433594 7.79199219 -1.09765625 7.01171875 C-1.10289307 6.31522217 -1.10812988 5.61872559 -1.11352539 4.90112305 C-1 3 -1 3 0 0 Z " fill="#661709" transform="translate(29,88)"/>
<path d="M0 0 C0.66 0.33 1.32 0.66 2 1 C0.35 8.59 -1.3 16.18 -3 24 C-3.33 24 -3.66 24 -4 24 C-4.58589512 6.87884268 -4.58589512 6.87884268 0 0 Z " fill="#E7CA88" transform="translate(159,78)"/>
<path d="M0 0 C0.66 0.33 1.32 0.66 2 1 C1.40477663 2.44122613 0.79842381 3.87785868 0.1875 5.3125 C-0.31716797 6.51326172 -0.31716797 6.51326172 -0.83203125 7.73828125 C-1.98200704 9.96515745 -3.13626961 11.34987767 -5 13 C-5.29359745 9.9465865 -5.4451258 7.04256578 -5 4 C-2.5 1.4375 -2.5 1.4375 0 0 Z " fill="#3F1105" transform="translate(67,121)"/>
<path d="M0 0 C-0.84304687 0.27714844 -1.68609375 0.55429688 -2.5546875 0.83984375 C-4.19824219 1.38318359 -4.19824219 1.38318359 -5.875 1.9375 C-6.96554688 2.29714844 -8.05609375 2.65679687 -9.1796875 3.02734375 C-11.90758682 3.89914074 -11.90758682 3.89914074 -14 5 C-16.125 4.0625 -16.125 4.0625 -18 3 C-18 2.34 -18 1.68 -18 1 C-15.56348622 0.63737003 -13.12623023 0.28461036 -10.6875 -0.0625 C-9.99720703 -0.16626953 -9.30691406 -0.27003906 -8.59570312 -0.37695312 C-5.30415164 -0.83808836 -3.19783876 -1.06594625 0 0 Z " fill="#A3803B" transform="translate(121,132)"/>
<path d="M0 0 C1.9375 0.3125 1.9375 0.3125 4 1 C5.41687119 5.25061356 4.19320039 7.71851625 3 12 C0.50494038 9.50494038 0.64051624 8.32671112 0.375 4.875 C0.30023438 3.96492188 0.22546875 3.05484375 0.1484375 2.1171875 C0.09945312 1.41851562 0.05046875 0.71984375 0 0 Z " fill="#D1961D" transform="translate(80,112)"/>
<path d="M0 0 C2.31 0.33 4.62 0.66 7 1 C7.33 1.99 7.66 2.98 8 4 C7.67 4.66 7.34 5.32 7 6 C4.69 5.67 2.38 5.34 0 5 C0 3.35 0 1.7 0 0 Z " fill="#E6C688" transform="translate(45,128)"/>
<path d="M0 0 C4.51617599 -0.07654536 8.59085217 -0.10228696 13 1 C11.88671875 2.48828125 11.88671875 2.48828125 10 4 C7.08203125 4.29296875 7.08203125 4.29296875 3.8125 4.1875 C2.72582031 4.16042969 1.63914063 4.13335937 0.51953125 4.10546875 C-0.31191406 4.07066406 -1.14335938 4.03585938 -2 4 C-1.34 2.68 -0.68 1.36 0 0 Z " fill="#987129" transform="translate(128,123)"/>
<path d="M0 0 C1.32 0.33 2.64 0.66 4 1 C4.625 2.8125 4.625 2.8125 5 5 C4.01 6.485 4.01 6.485 3 8 C1.0625 7.1875 1.0625 7.1875 -1 6 C-1.33 5.01 -1.66 4.02 -2 3 C-1.34 2.01 -0.68 1.02 0 0 Z " fill="#D2A968" transform="translate(58,152)"/>
<path d="M0 0 C0.66 0.33 1.32 0.66 2 1 C1.34 3.31 0.68 5.62 0 8 C2.64 7.67 5.28 7.34 8 7 C8 7.66 8 8.32 8 9 C4.78548731 10.60725635 1.56387464 10.05748185 -2 10 C-2.1953125 3.9453125 -2.1953125 3.9453125 -2 2 C-1.34 1.34 -0.68 0.68 0 0 Z " fill="#8C5B13" transform="translate(54,79)"/>
<path d="M0 0 C3.33864404 0.57562828 4.69102632 1.59063616 7 4 C7.99 4.33 8.98 4.66 10 5 C10.6875 7.0625 10.6875 7.0625 11 9 C6.39860359 7.51131293 3.49772906 5.25370145 0 2 C0 1.34 0 0.68 0 0 Z " fill="#461106" transform="translate(31,156)"/>
<path d="M0 0 C2 3 2 3 1.6875 5.625 C1.3471875 7.295625 1.3471875 7.295625 1 9 C0.79841217 10.62331254 0.61140372 12.24848878 0.4375 13.875 C0.35371094 14.65617187 0.26992188 15.43734375 0.18359375 16.2421875 C0.12300781 16.82226562 0.06242187 17.40234375 0 18 C-0.33 18 -0.66 18 -1 18 C-1.99989549 11.40609458 -2.00925164 6.38232875 0 0 Z " fill="#771B09" transform="translate(31,84)"/>
<path d="M0 0 C0 0.99 0 1.98 0 3 C-1.96875 4.82421875 -1.96875 4.82421875 -4.5 6.6875 C-5.3353125 7.31011719 -6.170625 7.93273437 -7.03125 8.57421875 C-7.6809375 9.04472656 -8.330625 9.51523438 -9 10 C-9.66 9.67 -10.32 9.34 -11 9 C-10.360625 8.21625 -9.72125 7.4325 -9.0625 6.625 C-7.01857687 4.20460719 -7.01857687 4.20460719 -6 2 C-4.02111039 1.27306096 -2.02045442 0.60183749 0 0 Z " fill="#53350A" transform="translate(67,87)"/>
<path d="M0 0 C0.99 0.33 1.98 0.66 3 1 C2.40895235 5.84659077 1.02055843 9.60748167 -1 14 C-1.33 14 -1.66 14 -2 14 C-2.25328119 8.93437617 -1.33583899 4.84241633 0 0 Z " fill="#D4B87A" transform="translate(164,79)"/>
<path d="M0 0 C1.5 1.1875 1.5 1.1875 3 3 C3.1875 5.6875 3.1875 5.6875 3 8 C3.66 8 4.32 8 5 8 C6.625 10 6.625 10 8 12 C7.67 12.66 7.34 13.32 7 14 C4.1053399 11.50438495 1.36721257 9.00889433 -1 6 C-1 2.5 -1 2.5 0 0 Z " fill="#D09E31" transform="translate(99,62)"/>
<path d="M0 0 C0.66 0 1.32 0 2 0 C1.91276622 1.77174819 1.80458345 3.54247377 1.6875 5.3125 C1.62949219 6.29863281 1.57148438 7.28476562 1.51171875 8.30078125 C0.95377187 11.24384457 0.31459868 12.18182999 -2 14 C-1.85970581 11.8537974 -1.71261836 9.70803782 -1.5625 7.5625 C-1.48128906 6.36753906 -1.40007812 5.17257813 -1.31640625 3.94140625 C-1 1 -1 1 0 0 Z " fill="#EDD79B" transform="translate(166,43)"/>
<path d="M0 0 C1.6065676 0.25620684 3.2102483 0.53055871 4.8125 0.8125 C6.15248047 1.03873047 6.15248047 1.03873047 7.51953125 1.26953125 C10.18321256 2.05395393 11.25690322 2.88627799 13 5 C10.44855176 5.93045933 9.25993522 6.08564091 6.640625 5.22265625 C5.85171875 4.83980469 5.0628125 4.45695313 4.25 4.0625 C3.45078125 3.68222656 2.6515625 3.30195313 1.828125 2.91015625 C1.22484375 2.60980469 0.6215625 2.30945313 0 2 C0 1.34 0 0.68 0 0 Z " fill="#CFB376" transform="translate(115,137)"/>
<path d="M0 0 C0.33 0 0.66 0 1 0 C1.33 5.94 1.66 11.88 2 18 C0.35 17.67 -1.3 17.34 -3 17 C-2.67 15.68 -2.34 14.36 -2 13 C-1.34 13 -0.68 13 0 13 C0 8.71 0 4.42 0 0 Z " fill="#AA502D" transform="translate(146,98)"/>
<path d="M0 0 C-0.49230769 5.53846154 -0.49230769 5.53846154 -3.0625 7.875 C-4.0215625 8.431875 -4.0215625 8.431875 -5 9 C-5.75 6.75 -5.75 6.75 -6 4 C-2.86486486 0 -2.86486486 0 0 0 Z " fill="#E8C159" transform="translate(77,42)"/>
<path d="M0 0 C0.66 0 1.32 0 2 0 C4 3 4 3 4 7 C2.35 7 0.7 7 -1 7 C-1.625 4.625 -1.625 4.625 -2 2 C-1.34 1.34 -0.68 0.68 0 0 Z " fill="#DBB874" transform="translate(60,137)"/>
<path d="M0 0 C1.6953125 1.546875 1.6953125 1.546875 3 3 C-3.33881314 2.37802877 -9.67094142 1.71457113 -16 1 C-16 0.67 -16 0.34 -16 0 C-10.48326877 -0.81312365 -5.50191364 -1.32045927 0 0 Z " fill="#FAF2CB" transform="translate(136,34)"/>
<path d="M0 0 C0.66 0 1.32 0 2 0 C2 1.32 2 2.64 2 4 C2.66 4 3.32 4 4 4 C2.125 8.875 2.125 8.875 1 10 C-1.33297433 10.04092937 -3.66705225 10.04241723 -6 10 C-4.03617993 8.49440461 -2.21736634 7.10868317 0 6 C0 4.02 0 2.04 0 0 Z " fill="#D6B576" transform="translate(148,114)"/>
<path d="M0 0 C0.66 0.33 1.32 0.66 2 1 C2.19294408 5.82360189 1.75747614 9.49646738 0 14 C-0.66 14 -1.32 14 -2 14 C-1.85795259 12.41632253 -1.71119847 10.83306682 -1.5625 9.25 C-1.48128906 8.36828125 -1.40007812 7.4865625 -1.31640625 6.578125 C-1.03761535 4.30649548 -0.61209423 2.20148177 0 0 Z " fill="#E3C582" transform="translate(152,104)"/>
<path d="M0 0 C1.32 0.66 2.64 1.32 4 2 C3.53980469 2.69480469 3.07960937 3.38960938 2.60546875 4.10546875 C0.89927453 7.18159993 0.10149131 9.89353768 -0.6875 13.3125 C-0.93886719 14.38113281 -1.19023437 15.44976562 -1.44921875 16.55078125 C-1.63097656 17.35902344 -1.81273437 18.16726562 -2 19 C-2.33 19 -2.66 19 -3 19 C-2.37679879 12.56025419 -1.35991738 6.32427599 0 0 Z " fill="#88663B" transform="translate(164,62)"/>
<path d="M0 0 C0.33 0 0.66 0 1 0 C1 1.98 1 3.96 1 6 C2.65 6 4.3 6 6 6 C6 6.33 6 6.66 6 7 C4.35 7 2.7 7 1 7 C1.28151087 8.31471568 1.57553339 9.62675767 1.875 10.9375 C2.03742187 11.66839844 2.19984375 12.39929688 2.3671875 13.15234375 C2.82961523 15.20700294 2.82961523 15.20700294 5 16 C3.68 16 2.36 16 1 16 C-0.50156874 12.99686252 -0.09281204 10.20932478 -0.0625 6.875 C-0.05347656 5.59367188 -0.04445313 4.31234375 -0.03515625 2.9921875 C-0.02355469 2.00476563 -0.01195313 1.01734375 0 0 Z " fill="#A46130" transform="translate(29,140)"/>
<path d="M0 0 C1.65 0 3.3 0 5 0 C4.67 1.65 4.34 3.3 4 5 C2.35 5.33 0.7 5.66 -1 6 C-0.67 4.02 -0.34 2.04 0 0 Z " fill="#D0962A" transform="translate(57,79)"/>
<path d="M0 0 C0.33 0 0.66 0 1 0 C1 1.98 1 3.96 1 6 C1.99 6.33 2.98 6.66 4 7 C4 8.65 4 10.3 4 12 C2.68 12 1.36 12 0 12 C0 8.04 0 4.08 0 0 Z " fill="#D49A2D" transform="translate(31,93)"/>
<path d="M0 0 C0.99 0 1.98 0 3 0 C3.80967438 2.91482778 4.21845993 4.46113217 3.0625 7.3125 C2.5365625 8.1478125 2.5365625 8.1478125 2 9 C1.34 8.67 0.68 8.34 0 8 C0 5.36 0 2.72 0 0 Z " fill="#EABA44" transform="translate(32,91)"/>
<path d="M0 0 C0.33 0.99 0.66 1.98 1 3 C2.32 2.67 3.64 2.34 5 2 C5 4.31 5 6.62 5 9 C2.5 7.875 2.5 7.875 0 6 C-0.3125 2.8125 -0.3125 2.8125 0 0 Z " fill="#E8D4A0" transform="translate(95,45)"/>
<path d="M0 0 C0.66 0 1.32 0 2 0 C0.61811547 3.21043882 -0.92421903 5.04936365 -3.625 7.25 C-4.57246094 8.03117187 -4.57246094 8.03117187 -5.5390625 8.828125 C-6.02117188 9.21484375 -6.50328125 9.6015625 -7 10 C-7 7 -7 7 -4.625 4.3125 C-2 2 -2 2 0 2 C0 1.34 0 0.68 0 0 Z " fill="#9B2C14" transform="translate(70,44)"/>
<path d="M0 0 C0.33 0 0.66 0 1 0 C1.125 3.375 1.125 3.375 1 7 C-1 9 -1 9 -4.125 9.125 C-5.548125 9.063125 -5.548125 9.063125 -7 9 C-6.21625 8.2575 -5.4325 7.515 -4.625 6.75 C-2.43495469 4.45566682 -1.17268614 2.87841142 0 0 Z " fill="#E1C481" transform="translate(147,138)"/>
<path d="M0 0 C0.33 0 0.66 0 1 0 C1 1.98 1 3.96 1 6 C3.31 6 5.62 6 8 6 C6 8 6 8 2.9375 8.1875 C0 8 0 8 -1 7 C-1.125 4 -1.125 4 -1 1 C-0.67 0.67 -0.34 0.34 0 0 Z " fill="#774D0F" transform="translate(51,83)"/>
<path d="M0 0 C3.84375 1.671875 3.84375 1.671875 5.25 4.625 C5.4975 5.40875 5.745 6.1925 6 7 C6.66 7 7.32 7 8 7 C7.67 8.65 7.34 10.3 7 12 C5.31843245 9.47764868 3.83531994 6.96413358 2.375 4.3125 C1.92898437 3.50425781 1.48296875 2.69601563 1.0234375 1.86328125 C0.68570313 1.24839844 0.34796875 0.63351563 0 0 Z " fill="#751A09" transform="translate(122,77)"/>
<path d="M0 0 C-3.57469625 3.57469625 -8.02894421 3.96917283 -12.9375 4.125 C-13.948125 4.08375 -14.95875 4.0425 -16 4 C-16 3.67 -16 3.34 -16 3 C-14.96875 2.71125 -13.9375 2.4225 -12.875 2.125 C-10.44388238 1.44094059 -8.12900748 0.68175273 -5.75 -0.1875 C-3 -1 -3 -1 0 0 Z " fill="#49170A" transform="translate(60,162)"/>
<path d="M0 0 C1.32 0.66 2.64 1.32 4 2 C3.34 3.65 2.68 5.3 2 7 C1.01 7 0.02 7 -1 7 C-2 4 -2 4 -1.0625 1.8125 C-0.5365625 0.9153125 -0.5365625 0.9153125 0 0 Z " fill="#C4881A" transform="translate(65,129)"/>
<path d="M0 0 C3.3 0 6.6 0 10 0 C9.67 1.32 9.34 2.64 9 4 C4.80884715 3.41789544 3.62457917 2.71843438 0 0 Z " fill="#150603" transform="translate(51,128)"/>
<path d="M0 0 C-3.42346555 3.14958831 -6.44262737 3.56179109 -11 4 C-11 3.01 -11 2.02 -11 1 C-7.32589215 -0.17571451 -3.83070817 -0.07366746 0 0 Z " fill="#845D1A" transform="translate(110,129)"/>
<path d="M0 0 C0.66 0.99 1.32 1.98 2 3 C1.24451463 5.8475987 0.31613642 8.36772716 -1 11 C-1.99 11 -2.98 11 -4 11 C-3.71125 10.29875 -3.4225 9.5975 -3.125 8.875 C-1.97866412 5.94547497 -0.97374346 2.99078347 0 0 Z " fill="#9C7436" transform="translate(125,108)"/>
<path d="M0 0 C-3.42346555 3.14958831 -6.44262737 3.56179109 -11 4 C-7.64918101 0.31409911 -4.96535219 -1.77334007 0 0 Z " fill="#9E782E" transform="translate(126,128)"/>
<path d="M0 0 C0.66 0.33 1.32 0.66 2 1 C-1.75 4 -1.75 4 -4 4 C-4.33 4.99 -4.66 5.98 -5 7 C-7.0625 8.1875 -7.0625 8.1875 -9 9 C-6.99337736 4.52368795 -4.64582071 1.79838221 0 0 Z " fill="#684410" transform="translate(61,72)"/>
<path d="M0 0 C0.33 0 0.66 0 1 0 C1 2.97 1 5.94 1 9 C-0.65 9 -2.3 9 -4 9 C-4 8.34 -4 7.68 -4 7 C-3.34 7 -2.68 7 -2 7 C-1.34 4.69 -0.68 2.38 0 0 Z " fill="#AF3F29" transform="translate(113,44)"/>
<path d="M0 0 C0.66 0 1.32 0 2 0 C1.34 2.97 0.68 5.94 0 9 C-0.66 8.34 -1.32 7.68 -2 7 C-1.43181818 1.43181818 -1.43181818 1.43181818 0 0 Z " fill="#DCBE7D" transform="translate(150,129)"/>
<path d="M0 0 C-1.1858237 3.37503669 -2.27573689 5.64722731 -5 8 C-5 5.69 -5 3.38 -5 1 C-2 0 -2 0 0 0 Z " fill="#531507" transform="translate(67,126)"/>
<path d="M0 0 C0.33 0 0.66 0 1 0 C1.33 2.64 1.66 5.28 2 8 C1.34 8 0.68 8 0 8 C-0.33 8.99 -0.66 9.98 -1 11 C-2.26264601 6.70700357 -1.62950412 4.12168689 0 0 Z " fill="#C48714" transform="translate(84,118)"/>
<path d="M0 0 C0.66 0.33 1.32 0.66 2 1 C1.34 3.31 0.68 5.62 0 8 C-0.99 7.67 -1.98 7.34 -3 7 C-2.38722388 4.03824877 -1.74627478 2.61941217 0 0 Z " fill="#372309" transform="translate(44,83)"/>
<path d="M0 0 C0.61875 0.350625 1.2375 0.70125 1.875 1.0625 C2.57625 1.371875 3.2775 1.68125 4 2 C4.66 1.67 5.32 1.34 6 1 C6 2.32 6 3.64 6 5 C5.01 5.33 4.02 5.66 3 6 C0 2.25 0 2.25 0 0 Z " fill="#C79D5E" transform="translate(112,68)"/>
<path d="M0 0 C0.99 0.33 1.98 0.66 3 1 C3.33 2.98 3.66 4.96 4 7 C3.01 6.67 2.02 6.34 1 6 C0.67 4.02 0.34 2.04 0 0 Z " fill="#E7CA86" transform="translate(30,147)"/>
<path d="M0 0 C0.33 0.99 0.66 1.98 1 3 C2.65 2.67 4.3 2.34 6 2 C5.67 2.99 5.34 3.98 5 5 C3.02 5 1.04 5 -1 5 C-0.67 3.35 -0.34 1.7 0 0 Z " fill="#B27919" transform="translate(55,82)"/>
<path d="M0 0 C2 2 2 2 2.3125 5 C2.209375 5.99 2.10625 6.98 2 8 C1.01 8.66 0.02 9.32 -1 10 C-0.67 6.7 -0.34 3.4 0 0 Z " fill="#95713F" transform="translate(160,79)"/>
<path d="M0 0 C-1.12451727 2.9719385 -2.22293791 5.33440687 -4 8 C-4.33 6.02 -4.66 4.04 -5 2 C-2 0 -2 0 0 0 Z " fill="#882511" transform="translate(37,81)"/>
<path d="M0 0 C0.33 0 0.66 0 1 0 C1.125 7.75 1.125 7.75 0 10 C-0.66 10 -1.32 10 -2 10 C-1.54177532 6.53058454 -1.10868317 3.32604951 0 0 Z " fill="#F9F0C6" transform="translate(98,38)"/>
<path d="M0 0 C2.31 0.33 4.62 0.66 7 1 C5.9375 2.5625 5.9375 2.5625 4 4 C0.3125 3.6875 0.3125 3.6875 -3 3 C-2.01 2.67 -1.02 2.34 0 2 C0 1.34 0 0.68 0 0 Z " fill="#ECDDAE" transform="translate(149,37)"/>
<path d="M0 0 C0.66 0 1.32 0 2 0 C2 1.65 2 3.3 2 5 C0.35 5 -1.3 5 -3 5 C-3 4.34 -3 3.68 -3 3 C-2.34 3 -1.68 3 -1 3 C-0.67 2.01 -0.34 1.02 0 0 Z " fill="#A13C1F" transform="translate(138,109)"/>
<path d="M0 0 C0.33 0 0.66 0 1 0 C1 3.96 1 7.92 1 12 C-0.32 11.34 -1.64 10.68 -3 10 C-2.34 9.34 -1.68 8.68 -1 8 C-0.54188325 6.02764667 -0.54188325 6.02764667 -0.375 3.875 C-0.25125 2.59625 -0.1275 1.3175 0 0 Z " fill="#C18D20" transform="translate(35,96)"/>
<path d="M0 0 C-1.0625 1.5625 -1.0625 1.5625 -3 3 C-6.6875 2.6875 -6.6875 2.6875 -10 2 C-6.3558226 -0.4294516 -4.28758728 -0.16179575 0 0 Z " fill="#9F7830" transform="translate(141,124)"/>
</svg>
